<svg width="32" height="33" viewBox="0 0 32 33" fill="none" xmlns="http://www.w3.org/2000/svg">
<path d="M15.9997 21.1916C15.8219 21.1916 15.6552 21.1641 15.4997 21.109C15.3441 21.0539 15.1997 20.9592 15.0663 20.825L10.2663 16.025C9.99967 15.7583 9.87168 15.4472 9.88234 15.0916C9.89301 14.7361 10.021 14.425 10.2663 14.1583C10.533 13.8916 10.8499 13.753 11.217 13.7423C11.5841 13.7316 11.9006 13.8592 12.1663 14.125L14.6663 16.625V7.09164C14.6663 6.71386 14.7943 6.39742 15.0503 6.14231C15.3063 5.88719 15.6228 5.75919 15.9997 5.75831C16.3766 5.75742 16.6935 5.88542 16.9503 6.14231C17.2072 6.39919 17.3348 6.71564 17.333 7.09164V16.625L19.833 14.125C20.0997 13.8583 20.4166 13.7303 20.7837 13.741C21.1508 13.7516 21.4672 13.8907 21.733 14.1583C21.9775 14.425 22.1055 14.7361 22.117 15.0916C22.1286 15.4472 22.0006 15.7583 21.733 16.025L16.933 20.825C16.7997 20.9583 16.6552 21.053 16.4997 21.109C16.3441 21.165 16.1775 21.1925 15.9997 21.1916ZM7.99967 27.0916C7.26634 27.0916 6.63879 26.8308 6.11701 26.309C5.59523 25.7872 5.3339 25.1592 5.33301 24.425V21.7583C5.33301 21.3805 5.46101 21.0641 5.71701 20.809C5.97301 20.5539 6.28945 20.4259 6.66634 20.425C7.04323 20.4241 7.36012 20.5521 7.61701 20.809C7.8739 21.0659 8.00145 21.3823 7.99967 21.7583V24.425H23.9997V21.7583C23.9997 21.3805 24.1277 21.0641 24.3837 20.809C24.6397 20.5539 24.9561 20.4259 25.333 20.425C25.7099 20.4241 26.0268 20.5521 26.2837 20.809C26.5406 21.0659 26.6681 21.3823 26.6663 21.7583V24.425C26.6663 25.1583 26.4055 25.7863 25.8837 26.309C25.3619 26.8316 24.7339 27.0925 23.9997 27.0916H7.99967Z" fill="url(#paint0_linear_163_743)"/>
<defs>
<linearGradient id="paint0_linear_163_743" x1="5.33301" y1="16.425" x2="26.6664" y2="16.425" gradientUnits="userSpaceOnUse">
<stop stop-color="#DA9200"/>
<stop offset="1" stop-color="#FCC200"/>
</linearGradient>
</defs>
</svg>
