<svg width="57" height="57" viewBox="0 0 57 57" fill="none" xmlns="http://www.w3.org/2000/svg">
<path d="M49.832 33.75C49.832 34.2141 49.6477 34.6593 49.3195 34.9874C48.9913 35.3156 48.5462 35.5 48.082 35.5H42.832V39H46.332C46.7962 39 47.2413 39.1844 47.5695 39.5126C47.8977 39.8408 48.082 40.2859 48.082 40.75C48.082 41.2141 47.8977 41.6592 47.5695 41.9874C47.2413 42.3156 46.7962 42.5 46.332 42.5H42.832V46C42.832 46.4641 42.6477 46.9092 42.3195 47.2374C41.9913 47.5656 41.5462 47.75 41.082 47.75C40.6179 47.75 40.1728 47.5656 39.8446 47.2374C39.5164 46.9092 39.332 46.4641 39.332 46V33.75C39.332 33.2859 39.5164 32.8407 39.8446 32.5126C40.1728 32.1844 40.6179 32 41.082 32H48.082C48.5462 32 48.9913 32.1844 49.3195 32.5126C49.6477 32.8407 49.832 33.2859 49.832 33.75ZM20.957 38.125C20.957 39.7495 20.3117 41.3074 19.1631 42.456C18.0144 43.6047 16.4565 44.25 14.832 44.25H13.082V46C13.082 46.4641 12.8977 46.9092 12.5695 47.2374C12.2413 47.5656 11.7962 47.75 11.332 47.75C10.8679 47.75 10.4228 47.5656 10.0946 47.2374C9.76641 46.9092 9.58203 46.4641 9.58203 46V33.75C9.58203 33.2859 9.76641 32.8407 10.0946 32.5126C10.4228 32.1844 10.8679 32 11.332 32H14.832C16.4565 32 18.0144 32.6453 19.1631 33.794C20.3117 34.9426 20.957 36.5005 20.957 38.125ZM17.457 38.125C17.457 37.4288 17.1805 36.7611 16.6882 36.2688C16.1959 35.7766 15.5282 35.5 14.832 35.5H13.082V40.75H14.832C15.5282 40.75 16.1959 40.4734 16.6882 39.9812C17.1805 39.4889 17.457 38.8212 17.457 38.125ZM36.707 39.875C36.707 41.9636 35.8773 43.9666 34.4005 45.4435C32.9236 46.9203 30.9206 47.75 28.832 47.75H25.332C24.8679 47.75 24.4228 47.5656 24.0946 47.2374C23.7664 46.9092 23.582 46.4641 23.582 46V33.75C23.582 33.2859 23.7664 32.8407 24.0946 32.5126C24.4228 32.1844 24.8679 32 25.332 32H28.832C30.9206 32 32.9236 32.8297 34.4005 34.3065C35.8773 35.7834 36.707 37.7864 36.707 39.875ZM33.207 39.875C33.207 38.7147 32.7461 37.6019 31.9256 36.7814C31.1052 35.9609 29.9924 35.5 28.832 35.5H27.082V44.25H28.832C29.9924 44.25 31.1052 43.7891 31.9256 42.9686C32.7461 42.1481 33.207 41.0353 33.207 39.875ZM9.58203 25V9.25C9.58203 8.32174 9.95078 7.4315 10.6072 6.77513C11.2635 6.11875 12.1538 5.75 13.082 5.75H34.082C34.3119 5.74982 34.5396 5.79493 34.752 5.88276C34.9645 5.97059 35.1575 6.09942 35.3202 6.26188L47.5702 18.5119C47.7326 18.6745 47.8614 18.8676 47.9493 19.08C48.0371 19.2925 48.0822 19.5201 48.082 19.75V25C48.082 25.4641 47.8977 25.9092 47.5695 26.2374C47.2413 26.5656 46.7962 26.75 46.332 26.75C45.8679 26.75 45.4228 26.5656 45.0946 26.2374C44.7664 25.9092 44.582 25.4641 44.582 25V21.5H34.082C33.6179 21.5 33.1728 21.3156 32.8446 20.9874C32.5164 20.6592 32.332 20.2141 32.332 19.75V9.25H13.082V25C13.082 25.4641 12.8977 25.9092 12.5695 26.2374C12.2413 26.5656 11.7962 26.75 11.332 26.75C10.8679 26.75 10.4228 26.5656 10.0946 26.2374C9.76641 25.9092 9.58203 25.4641 9.58203 25ZM35.832 18H42.108L35.832 11.7241V18Z" fill="url(#paint0_linear_219_5156)"/>
<defs>
<linearGradient id="paint0_linear_219_5156" x1="9.58203" y1="26.75" x2="49.832" y2="26.75" gradientUnits="userSpaceOnUse">
<stop stop-color="#DA9200"/>
<stop offset="1" stop-color="#FCC200"/>
</linearGradient>
</defs>
</svg>
