<svg width="98" height="49" viewBox="0 0 98 49" fill="none" xmlns="http://www.w3.org/2000/svg">
<g clip-path="url(#clip0_152_1601)">
<path d="M81.145 26.5588H78.2899L75.1707 20.4899L69.4322 31.6653H66.5752L73.7413 17.7097V17.7059L75.1707 14.9238L76.6002 17.7059L81.145 26.5588Z" fill="white"/>
<path d="M83.7661 31.6652H80.9091L79.5928 29.0979H82.4479L83.7661 31.6652Z" fill="#CC8714"/>
<path d="M40.683 26.555H37.826L34.7087 20.4861L28.9683 31.6615H26.1113L33.2774 17.7059V17.7021L34.7087 14.92L36.1382 17.7021L40.683 26.555Z" fill="white"/>
<path d="M43.3041 31.6615H40.4471L39.1289 29.0941H41.9859L43.3041 31.6615Z" fill="#CC8714"/>
<path d="M95.4582 14.9351V22.0306H84.9316V31.6614H87.4718V24.5697H95.4582V31.6614H98.0003V14.9351H95.4582Z" fill="white"/>
<path d="M57.8703 14.9351V26.7886L55.3301 29.1167V14.9351H57.8703Z" fill="white"/>
<path d="M57.8703 29.1149H65.9547V31.654H55.3301L57.8703 29.1149Z" fill="#CC8714"/>
<path d="M44.7975 24.566C42.9608 24.566 41.3635 23.5394 40.5469 22.0288C40.1811 21.3507 39.9736 20.5746 39.9736 19.7477C39.9736 18.9208 40.1811 18.1485 40.5431 17.4704C41.3597 15.9579 42.957 14.9332 44.7975 14.9332H45.0125V17.4704H44.7975C43.5378 17.4704 42.5138 18.4895 42.5138 19.7477C42.5138 21.006 43.5378 22.0288 44.7975 22.0288H49.6177" fill="white"/>
<path d="M49.6199 22.0269C51.4567 22.0269 53.054 23.0534 53.8706 24.5641C54.2326 25.2422 54.4401 26.0182 54.4401 26.8413C54.4401 27.6645 54.2326 28.4405 53.8668 29.1186C53.054 30.6311 51.4567 31.6558 49.6199 31.6558H49.3691V29.1186H49.6199C50.8797 29.1186 51.8999 28.0996 51.8999 26.8413C51.8999 25.5831 50.8797 24.5641 49.6199 24.5641H44.7998" fill="white"/>
<path d="M24.5234 0C24.5234 0 24.6102 0.0075344 24.7761 0.0244868C24.8591 0.0320212 24.9609 0.0433228 25.0816 0.0583916C25.2023 0.0715768 25.3419 0.0904129 25.4965 0.1149C26.1207 0.207196 27.0203 0.37672 28.0971 0.710118C29.1682 1.05105 30.4166 1.55774 31.6895 2.3206C32.953 3.09099 34.2505 4.10437 35.3782 5.38898C36.5134 6.66606 37.3602 8.07876 37.9598 9.43119C38.5614 10.7855 38.916 12.0833 39.1253 13.1852C39.3346 14.289 39.3987 15.2025 39.4195 15.8317C39.427 15.988 39.427 16.1293 39.427 16.2498C39.427 16.3704 39.427 16.474 39.427 16.5569C39.4232 16.7226 39.4214 16.8093 39.4214 16.8093C39.4214 16.8093 39.4119 16.7226 39.3931 16.5606C39.3855 16.4796 39.3704 16.3779 39.3554 16.2592C39.3403 16.1406 39.3214 16.0031 39.2969 15.8486C39.2026 15.2346 39.0404 14.3512 38.7406 13.2945C38.4407 12.2396 37.9995 11.0134 37.3545 9.7401C36.7096 8.46679 35.8591 7.14638 34.7709 5.92393C33.6904 4.69582 32.4835 3.68809 31.3067 2.88379C30.1224 2.08515 28.9551 1.505 27.9443 1.0793C26.9297 0.661144 26.0679 0.399323 25.4682 0.23545C25.3193 0.194011 25.1835 0.158222 25.0666 0.129968C24.9496 0.0998309 24.8516 0.075344 24.7705 0.0583916C24.6102 0.0207196 24.5253 0.0018836 24.5253 0.0018836L24.5234 0Z" fill="#CC8714"/>
<path d="M0.00942906 21.6708C0.00942906 21.6708 0.0188581 21.7574 0.0358304 21.9213C0.0433737 22.0023 0.0565744 22.104 0.0716609 22.2227C0.0848615 22.3413 0.10372 22.4788 0.126349 22.6333C0.216868 23.2492 0.371505 24.1345 0.663806 25.1912C0.96365 26.246 1.39927 27.4723 2.04988 28.7456C2.70803 30.0114 3.56041 31.3299 4.65041 32.5505C5.73475 33.7767 6.94356 34.7806 8.12974 35.5755C9.3178 36.3704 10.4813 36.9562 11.494 37.3819C12.5067 37.8076 13.3648 38.0751 13.9644 38.2427C14.1134 38.286 14.2473 38.3218 14.3642 38.3501C14.4812 38.3802 14.5792 38.4066 14.6584 38.4235C14.8187 38.4612 14.9036 38.4819 14.9036 38.4819C14.9036 38.4819 14.8168 38.4725 14.6509 38.4574C14.5679 38.4499 14.4661 38.4367 14.3454 38.4216C14.2247 38.4066 14.0851 38.3877 13.9305 38.3632C13.3082 38.2672 12.4086 38.092 11.3375 37.7511C10.2664 37.4101 9.02173 36.8997 7.74692 36.1387C6.47588 35.3796 5.17467 34.37 4.04318 33.0892C2.90604 31.814 2.05554 30.405 1.44265 29.0583C0.839186 27.704 0.48654 26.4043 0.277214 25.3024C0.0792041 24.1929 0.0226297 23.2794 0.00565744 22.6502C0 22.492 0 22.3526 0 22.2321C0 22.1115 0 22.0079 0.00377162 21.9251C0.00754325 21.7593 0.0113149 21.6727 0.0113149 21.6727L0.00942906 21.6708Z" fill="#CC8714"/>
<path d="M24.6435 1.88354C24.6435 1.88354 24.7189 1.89296 24.8641 1.90992C25.0075 1.92875 25.2205 1.95512 25.4921 2.00033C26.0352 2.09074 26.8197 2.25273 27.7532 2.55599C28.6829 2.86678 29.7654 3.32073 30.8686 3.99506C31.9642 4.67504 33.0882 5.56222 34.0707 6.67919C35.0588 7.79052 35.8018 9.01674 36.3336 10.1902C36.8673 11.3656 37.1898 12.4939 37.3859 13.4526C37.582 14.4133 37.6518 15.21 37.6801 15.7582C37.6877 15.8957 37.6914 16.0181 37.6933 16.1236C37.6952 16.2291 37.699 16.3195 37.6971 16.391C37.6971 16.5361 37.6971 16.6133 37.6971 16.6133C37.6971 16.6133 37.6895 16.538 37.6763 16.3948C37.6707 16.3232 37.6594 16.2347 37.648 16.1292C37.6367 16.0237 37.6235 15.9032 37.6047 15.7695C37.533 15.2289 37.4048 14.4509 37.154 13.5185C36.9032 12.588 36.5298 11.5031 35.9697 10.3767C35.4096 9.25031 34.6647 8.08059 33.7067 7.00129C32.7525 5.91633 31.6832 5.03293 30.6385 4.33223C29.5881 3.63718 28.5547 3.13802 27.6589 2.77637C26.7613 2.42225 26.0013 2.20564 25.4714 2.07191C25.2073 2.0041 24.998 1.95889 24.8566 1.92875C24.7151 1.89861 24.6416 1.88354 24.6416 1.88354H24.6435Z" fill="#CC8714"/>
<path d="M1.94817 21.9477C1.94817 21.9477 1.95383 22.023 1.96703 22.1662C1.98023 22.3093 1.99909 22.5222 2.03492 22.7915C2.10281 23.3321 2.22539 24.1119 2.47054 25.0462C2.72136 25.9767 3.09098 27.0617 3.65483 28.1881C4.22435 29.3088 4.97302 30.4766 5.93478 31.5541C6.89089 32.6352 7.96392 33.5168 9.01431 34.208C10.0666 34.8993 11.0981 35.4022 11.9939 35.7639C12.8897 36.1255 13.6478 36.3478 14.1758 36.4834C14.3078 36.5192 14.4266 36.5475 14.5284 36.5701C14.6303 36.5946 14.717 36.6153 14.7887 36.6304C14.9301 36.6605 15.0037 36.6774 15.0037 36.6774C15.0037 36.6774 14.9282 36.668 14.783 36.6511C14.7114 36.6435 14.6227 36.6285 14.5171 36.6134C14.4115 36.5983 14.2908 36.5795 14.155 36.555C13.6119 36.4608 12.8312 36.2951 11.8996 35.9843C10.9699 35.6735 9.88933 35.2158 8.78425 34.5452C7.68104 33.8746 6.55521 32.9912 5.56893 31.8761C4.57888 30.7667 3.8321 29.5442 3.29087 28.3764C2.7553 27.201 2.43471 26.0728 2.23859 25.1121C2.05001 24.1496 1.98589 23.3528 1.96138 22.8028C1.94817 22.5278 1.94817 22.3131 1.94629 22.1681C1.94629 22.023 1.94629 21.9458 1.94629 21.9458L1.94817 21.9477Z" fill="#CC8714"/>
<path d="M16.7459 13.6617H16.2744V14.1929H16.7459V13.6617Z" fill="white"/>
<path d="M17.3924 13.6617H16.9209V14.1929H17.3924V13.6617Z" fill="white"/>
<path d="M16.7459 14.3267H16.2744V14.8578H16.7459V14.3267Z" fill="white"/>
<path d="M17.3924 14.3267H16.9209V14.8578H17.3924V14.3267Z" fill="white"/>
<path d="M16.7537 16.3496H16.2822V16.8808H16.7537V16.3496Z" fill="white"/>
<path d="M17.4002 16.3496H16.9287V16.8808H17.4002V16.3496Z" fill="white"/>
<path d="M16.7537 17.0145H16.2822V17.5457H16.7537V17.0145Z" fill="white"/>
<path d="M17.4002 17.0145H16.9287V17.5457H17.4002V17.0145Z" fill="white"/>
<path d="M16.7537 19.0376H16.2822V19.5688H16.7537V19.0376Z" fill="white"/>
<path d="M17.4002 19.0376H16.9287V19.5688H17.4002V19.0376Z" fill="white"/>
<path d="M16.7537 19.7025H16.2822V20.2337H16.7537V19.7025Z" fill="white"/>
<path d="M17.4002 19.7025H16.9287V20.2337H17.4002V19.7025Z" fill="white"/>
<path d="M16.7459 21.7085H16.2744V22.2397H16.7459V21.7085Z" fill="white"/>
<path d="M17.3924 21.7085H16.9209V22.2397H17.3924V21.7085Z" fill="white"/>
<path d="M16.7459 22.3734H16.2744V22.9046H16.7459V22.3734Z" fill="white"/>
<path d="M17.3924 22.3734H16.9209V22.9046H17.3924V22.3734Z" fill="white"/>
<path d="M16.7537 24.3964H16.2822V24.9275H16.7537V24.3964Z" fill="white"/>
<path d="M17.4002 24.3964H16.9287V24.9275H17.4002V24.3964Z" fill="white"/>
<path d="M16.7537 25.0613H16.2822V25.5925H16.7537V25.0613Z" fill="white"/>
<path d="M17.4002 25.0613H16.9287V25.5925H17.4002V25.0613Z" fill="white"/>
<path d="M16.7537 27.0844H16.2822V27.6155H16.7537V27.0844Z" fill="white"/>
<path d="M17.4002 27.0844H16.9287V27.6155H17.4002V27.0844Z" fill="white"/>
<path d="M16.7537 27.7493H16.2822V28.2804H16.7537V27.7493Z" fill="white"/>
<path d="M17.4002 27.7493H16.9287V28.2804H17.4002V27.7493Z" fill="white"/>
<path d="M22.4715 7.60596H22V8.13713H22.4715V7.60596Z" fill="white"/>
<path d="M23.1179 7.60596H22.6465V8.13713H23.1179V7.60596Z" fill="white"/>
<path d="M22.4715 8.27087H22V8.80205H22.4715V8.27087Z" fill="white"/>
<path d="M23.1179 8.27087H22.6465V8.80205H23.1179V8.27087Z" fill="white"/>
<path d="M22.4793 10.2938H22.0078V10.825H22.4793V10.2938Z" fill="white"/>
<path d="M23.1257 10.2938H22.6543V10.825H23.1257V10.2938Z" fill="white"/>
<path d="M22.4793 10.9587H22.0078V11.4899H22.4793V10.9587Z" fill="white"/>
<path d="M23.1257 10.9587H22.6543V11.4899H23.1257V10.9587Z" fill="white"/>
<path d="M22.4793 12.9818H22.0078V13.513H22.4793V12.9818Z" fill="white"/>
<path d="M23.1257 12.9818H22.6543V13.513H23.1257V12.9818Z" fill="white"/>
<path d="M22.4793 13.6467H22.0078V14.1779H22.4793V13.6467Z" fill="white"/>
<path d="M23.1257 13.6467H22.6543V14.1779H23.1257V13.6467Z" fill="white"/>
<path d="M22.4715 15.6527H22V16.1839H22.4715V15.6527Z" fill="white"/>
<path d="M23.1179 15.6527H22.6465V16.1839H23.1179V15.6527Z" fill="white"/>
<path d="M22.4715 16.3176H22V16.8488H22.4715V16.3176Z" fill="white"/>
<path d="M23.1179 16.3176H22.6465V16.8488H23.1179V16.3176Z" fill="white"/>
<path d="M22.4793 18.3406H22.0078V18.8718H22.4793V18.3406Z" fill="white"/>
<path d="M23.1257 18.3406H22.6543V18.8718H23.1257V18.3406Z" fill="white"/>
<path d="M22.4793 19.0055H22.0078V19.5367H22.4793V19.0055Z" fill="white"/>
<path d="M23.1257 19.0055H22.6543V19.5367H23.1257V19.0055Z" fill="white"/>
<path d="M22.4793 21.0286H22.0078V21.5597H22.4793V21.0286Z" fill="white"/>
<path d="M23.1257 21.0286H22.6543V21.5597H23.1257V21.0286Z" fill="white"/>
<path d="M22.4793 21.6935H22.0078V22.2247H22.4793V21.6935Z" fill="white"/>
<path d="M23.1257 21.6935H22.6543V22.2247H23.1257V21.6935Z" fill="white"/>
<path d="M22.4715 24.063H22V24.5942H22.4715V24.063Z" fill="white"/>
<path d="M23.1179 24.063H22.6465V24.5942H23.1179V24.063Z" fill="white"/>
<path d="M22.4715 24.7279H22V25.2591H22.4715V24.7279Z" fill="white"/>
<path d="M23.1179 24.7279H22.6465V25.2591H23.1179V24.7279Z" fill="white"/>
<path d="M22.4793 26.7528H22.0078V27.284H22.4793V26.7528Z" fill="white"/>
<path d="M23.1257 26.7528H22.6543V27.284H23.1257V26.7528Z" fill="white"/>
<path d="M22.4793 27.4177H22.0078V27.9489H22.4793V27.4177Z" fill="white"/>
<path d="M23.1257 27.4177H22.6543V27.9489H23.1257V27.4177Z" fill="white"/>
<path d="M10.6795 20.6047H10.208V21.1359H10.6795V20.6047Z" fill="white"/>
<path d="M11.3259 20.6047H10.8545V21.1359H11.3259V20.6047Z" fill="white"/>
<path d="M10.6795 21.2697H10.208V21.8008H10.6795V21.2697Z" fill="white"/>
<path d="M11.3259 21.2697H10.8545V21.8008H11.3259V21.2697Z" fill="white"/>
<path d="M10.6873 23.2926H10.2158V23.8238H10.6873V23.2926Z" fill="white"/>
<path d="M11.3338 23.2926H10.8623V23.8238H11.3338V23.2926Z" fill="white"/>
<path d="M10.6873 23.9575H10.2158V24.4887H10.6873V23.9575Z" fill="white"/>
<path d="M11.3338 23.9575H10.8623V24.4887H11.3338V23.9575Z" fill="white"/>
<path d="M10.6873 25.9806H10.2158V26.5118H10.6873V25.9806Z" fill="white"/>
<path d="M11.3338 25.9806H10.8623V26.5118H11.3338V25.9806Z" fill="white"/>
<path d="M10.6873 26.6455H10.2158V27.1767H10.6873V26.6455Z" fill="white"/>
<path d="M11.3338 26.6455H10.8623V27.1767H11.3338V26.6455Z" fill="white"/>
<path d="M10.6795 29.015H10.208V29.5462H10.6795V29.015Z" fill="white"/>
<path d="M11.3259 29.015H10.8545V29.5462H11.3259V29.015Z" fill="white"/>
<path d="M10.6795 29.6799H10.208V30.2111H10.6795V29.6799Z" fill="white"/>
<path d="M11.3259 29.6799H10.8545V30.2111H11.3259V29.6799Z" fill="white"/>
<path d="M23.799 6.27612L17.2062 7.49481V12.2208L11.2546 13.317V19.1129L5.44629 20.1828L5.48966 27.7435L5.95923 20.4352L12.0636 19.3332V29.3841C12.0636 30.0151 12.2786 30.5501 12.7123 30.989C13.1442 31.4279 13.676 31.6482 14.3058 31.6482H17.2458C17.8266 31.6482 18.3339 31.458 18.7658 31.0756C19.1976 31.458 19.7049 31.6482 20.2857 31.6482H23.1503C23.7651 31.6482 24.2931 31.4279 24.7325 30.989C25.1719 30.5501 25.3925 30.0151 25.3925 29.3841V6.27612H23.799ZM17.9926 29.3163C17.9926 29.8607 17.7456 30.1338 17.2496 30.1338H14.5246C13.9306 30.1338 13.6326 29.8852 13.6326 29.3917V18.9659H12.6784L12.9066 14.6939L15.0375 14.0309L12.6407 14.4302V18.9659H12.0617L11.792 19.0149L11.7656 13.5732L17.9926 12.443V29.3182V29.3163ZM23.799 29.4124C23.799 29.7948 23.5916 30.034 23.1767 30.1338H20.2857C19.7709 30.1338 19.5126 29.8362 19.5126 29.2372V12.1661L18.7997 12.1379L18.9845 8.6683L21.1155 8.00527L18.7186 8.40459V12.1341L17.87 12.1002L17.7418 12.1247L17.7154 7.75098L23.7952 6.58503V29.4143L23.799 29.4124Z" fill="#CC8714"/>
<path d="M6.58301 26.378L6.84891 21.4015L8.97799 20.7366L6.58301 21.1359V26.378Z" fill="#CC8714"/>
<path d="M48.0936 29.1185H45.5459V31.6633H48.0936V29.1185Z" fill="#CC8714"/>
<path d="M30.6956 41.8856L29.7791 41.8724C30.3053 40.7441 30.8352 39.6178 31.3707 38.4895C32.0666 36.8865 32.4155 35.7639 32.4155 35.1197C32.4155 34.6865 32.2872 34.3512 32.0327 34.1082C31.7781 33.8671 31.433 33.7466 31.0011 33.7466C30.0582 33.7466 29.1889 34.3267 28.3912 35.4889C27.6613 36.5569 27.2955 37.5872 27.2955 38.5799C27.2955 38.9623 27.3841 39.2674 27.5633 39.4953C27.7594 39.759 28.0423 39.889 28.4157 39.889C29.1285 39.889 29.8281 39.2957 30.5165 38.109C31.135 37.041 31.4462 36.1218 31.4462 35.3495C31.4462 35.163 31.3858 34.9879 31.2689 34.8221C31.1501 34.6563 31.0011 34.5735 30.8239 34.5735C30.5693 34.5735 30.2977 34.6959 30.0092 34.9427C29.8734 35.0689 29.6603 35.3024 29.3718 35.6415C29.1587 35.8958 29.0154 36.0238 28.938 36.0238L28.8871 35.973V35.9466C29.5076 34.9201 30.1864 34.4077 30.9238 34.4077C31.1444 34.4077 31.3274 34.5226 31.4707 34.7505C31.597 34.9464 31.6612 35.1574 31.6612 35.3872C31.6612 36.2103 31.3349 37.1672 30.6805 38.2616C29.9507 39.4746 29.2039 40.0792 28.4402 40.0792C27.5237 40.0792 27.0654 39.5631 27.0654 38.5271C27.0654 37.4912 27.4633 36.3742 28.2629 35.2968C29.121 34.1346 30.0658 33.5544 31.103 33.5544C31.6894 33.5544 32.1703 33.7277 32.5475 34.0762C32.9246 34.4247 33.1132 34.8899 33.1132 35.4757C33.1132 36.0615 32.9133 36.7905 32.5154 37.6889L32.5531 37.7134C32.9774 37.0259 33.398 36.3365 33.8148 35.6396C34.4767 34.6469 34.999 34.1515 35.38 34.1515C35.5327 34.1515 35.6572 34.2062 35.7553 34.3173C35.8533 34.4284 35.9023 34.5584 35.9023 34.711C35.9023 35.3043 35.512 36.4703 34.7313 38.2088L34.7822 38.2333L36.3983 35.5887C36.7302 35.0463 36.9207 34.7411 36.9716 34.6733C37.2526 34.3248 37.5449 34.1515 37.8504 34.1515C38.0107 34.1515 38.1408 34.2137 38.2389 34.3361C38.3369 34.4586 38.3841 34.6017 38.3841 34.7618C38.3841 35.212 38.2181 35.8091 37.8881 36.555L35.8759 41.0945C35.825 41.2132 35.8005 41.3186 35.8005 41.4128C35.8005 41.5409 35.8514 41.6031 35.9533 41.6031C36.1569 41.6031 36.4266 41.3205 36.7623 40.7573C37.098 40.1941 37.2696 39.9116 37.279 39.9116C37.3299 39.9116 37.3544 39.9361 37.3544 39.9869C37.3544 40.2073 37.1545 40.5765 36.7566 41.0926C36.3568 41.6106 36.057 41.8687 35.8533 41.8687C35.6496 41.8687 35.4969 41.7952 35.3705 41.6464C35.2423 41.4976 35.1801 41.3262 35.1801 41.1303C35.1801 40.8082 35.3159 40.3298 35.5874 39.6931L37.675 34.8353C37.7259 34.7505 37.7768 34.6187 37.8278 34.4416L37.6995 34.3644C37.4525 34.3399 36.6812 35.4493 35.3819 37.6965C34.5842 39.0696 33.8166 40.4597 33.0774 41.8668H32.1232C32.7097 40.5614 33.2943 39.2505 33.8808 37.9376C34.8651 35.7244 35.3573 34.5754 35.3573 34.4906C35.3573 34.4058 35.314 34.3644 35.2291 34.3644C34.6596 34.3644 33.1491 36.8696 30.6975 41.88L30.6956 41.8856Z" fill="white"/>
<path d="M38.4373 38.7061C38.4373 38.6477 38.4034 38.6176 38.3355 38.6176C38.1922 38.6176 37.9942 38.8342 37.7433 39.2655C37.4925 39.6969 37.3473 39.9191 37.3039 39.9267L37.2285 39.8494C37.2285 39.6291 37.4001 39.339 37.7433 38.9792C38.0866 38.6195 38.3732 38.4386 38.6033 38.4386C38.9012 38.4386 39.0483 38.5535 39.0483 38.7814C39.0483 39.0696 38.8729 39.582 38.5203 40.3203C38.1676 41.0587 37.9923 41.4901 37.9923 41.6181C37.9923 41.6784 38.03 41.7067 38.1073 41.7067C38.2601 41.7067 38.4637 41.4901 38.7183 41.0587C38.9729 40.6255 39.1143 40.4051 39.1388 40.3976L39.2143 40.4729C39.1898 40.7366 39.0276 41.0323 38.7315 41.3639C38.4166 41.7199 38.1318 41.8988 37.8791 41.8988C37.5566 41.8988 37.3964 41.7801 37.3964 41.5428C37.3964 41.2621 37.5698 40.7592 37.9187 40.0303C38.2676 39.3013 38.4411 38.8606 38.4411 38.708L38.4373 38.7061ZM40.5249 35.8449C40.5249 36.0069 40.4627 36.1463 40.3401 36.2649C40.2175 36.3836 40.0704 36.4439 39.9007 36.4439C39.731 36.4439 39.599 36.3817 39.4802 36.2593C39.3614 36.1369 39.3029 35.9899 39.3029 35.8204C39.3029 35.6603 39.3633 35.519 39.4877 35.4004C39.6122 35.2817 39.7574 35.2214 39.9271 35.2214C40.0874 35.2214 40.2288 35.2855 40.3476 35.4117C40.4665 35.5379 40.5268 35.6829 40.5268 35.843L40.5249 35.8449Z" fill="white"/>
<path d="M41.8217 41.8744H41.0825L42.2913 38.7457L42.2026 38.6948C42.1517 38.6948 42.0876 38.725 42.0122 38.7834C41.5954 39.1224 41.2277 39.5971 40.9052 40.2074C40.743 40.5219 40.5054 41.0757 40.1924 41.8725H39.4418C39.67 41.33 39.8963 40.7913 40.1169 40.2582C40.4564 39.452 40.6431 38.9435 40.677 38.7325L40.6129 38.6948C40.4696 38.6948 40.2339 38.9152 39.9057 39.356C39.5795 39.7967 39.4022 40.0209 39.3777 40.0303L39.2891 39.9418C39.5191 39.6291 39.7473 39.3145 39.9774 39C40.2999 38.627 40.6148 38.4406 40.9203 38.4406C41.1579 38.4406 41.2767 38.5686 41.2767 38.8229C41.2767 39.0358 41.1824 39.3748 40.9957 39.8401C41.5652 38.9077 42.0612 38.4406 42.4855 38.4406C42.6137 38.4406 42.7288 38.4782 42.8363 38.5555C42.9419 38.6308 42.9947 38.7287 42.9947 38.8474C42.9947 39.0433 42.8834 39.3729 42.6628 39.8401C43.3002 38.9077 43.8131 38.4406 44.2035 38.4406C44.3223 38.4406 44.4298 38.4895 44.5278 38.5875C44.624 38.6854 44.6731 38.789 44.6731 38.8983C44.6731 39.1186 44.4996 39.5914 44.1507 40.3166C43.8018 41.0418 43.6283 41.4807 43.6283 41.6333L43.717 41.7218C43.8697 41.7218 44.0771 41.5052 44.3412 41.0738C44.6033 40.6406 44.7485 40.4202 44.773 40.4127L44.8371 40.4767C44.8371 40.7065 44.6787 41.0022 44.36 41.3677C44.0413 41.7331 43.7679 41.9139 43.5378 41.9139C43.4114 41.9139 43.287 41.8725 43.1682 41.7877C43.0494 41.7029 42.989 41.5975 42.989 41.4694C42.989 41.2735 43.1606 40.8026 43.5039 40.051C43.8471 39.3014 44.0206 38.8662 44.0206 38.7476L43.9451 38.6967C43.766 38.6892 43.4492 39.0019 42.9909 39.6385C42.5836 40.198 42.3252 40.618 42.214 40.8968L41.8198 41.8762L41.8217 41.8744Z" fill="white"/>
<path d="M47.6283 41.7086C47.7811 41.7086 47.9885 41.4901 48.2525 41.0531C48.5166 40.6161 48.6561 40.3938 48.6731 40.3863L48.7372 40.4504C48.7372 40.6707 48.5731 40.9702 48.2469 41.3469C47.9206 41.7237 47.6453 41.912 47.4266 41.912C47.3153 41.912 47.2116 41.8762 47.1135 41.8047C47.0155 41.7331 46.9664 41.6408 46.9664 41.5315C46.9664 41.2697 47.0607 40.9213 47.2474 40.488C47.0513 40.7687 46.8608 41.0475 46.6741 41.3281C46.3686 41.718 46.1272 41.9139 45.9481 41.9139C45.752 41.9139 45.5898 41.831 45.4578 41.6653C45.3258 41.4995 45.2598 41.3149 45.2598 41.1115C45.2598 40.586 45.4898 40.0171 45.9481 39.4068C46.4327 38.7626 46.9287 38.4406 47.4379 38.4406C47.7604 38.4406 47.9395 38.5347 47.9734 38.7212L48.0885 38.4801H48.7636C48.5335 39.032 48.3054 39.5858 48.0753 40.1452C47.6925 41.0776 47.502 41.5617 47.502 41.5956C47.502 41.6728 47.5435 41.7105 47.6302 41.7105L47.6283 41.7086ZM45.8972 41.5428C45.8972 41.6615 45.9387 41.7199 46.0235 41.7199C46.2536 41.7199 46.6176 41.3055 47.1192 40.473C47.6038 39.6687 47.8452 39.1243 47.8452 38.8455C47.8452 38.6666 47.7679 38.5781 47.617 38.5781C47.2946 38.5781 46.9212 38.9943 46.4969 39.825C46.0971 40.5879 45.8991 41.1605 45.8991 41.541L45.8972 41.5428Z" fill="white"/>
<path d="M49.0279 41.8744C49.4446 40.925 49.8765 39.8777 50.3272 38.7325L50.2253 38.6572C50.082 38.6572 49.8369 38.8851 49.4936 39.3447C49.1504 39.8024 48.9562 40.036 48.9147 40.0435L48.8506 39.9926C48.9185 39.7214 49.1429 39.3955 49.5257 39.0132C49.9085 38.6308 50.2348 38.4406 50.5063 38.4406C50.6082 38.4406 50.693 38.4801 50.7609 38.5611C50.8288 38.6421 50.8627 38.7325 50.8627 38.8342C50.8627 38.902 50.8194 39.1055 50.7345 39.4445C50.9212 39.1394 51.0608 38.9359 51.155 38.8342C51.3493 38.6308 51.5624 38.5291 51.7925 38.5291C51.9961 38.5291 52.098 38.6402 52.098 38.8606C52.098 39.081 51.998 39.2976 51.7981 39.4841C51.5982 39.6705 51.3832 39.7647 51.155 39.7647C51.0193 39.7647 50.9042 39.6969 50.8118 39.5613C50.6855 39.6969 50.5026 40.0623 50.2649 40.6557C50.1028 41.0625 49.9425 41.4694 49.7803 41.8762H49.0297L49.0279 41.8744Z" fill="white"/>
<path d="M60.4612 34.2307L60.5366 34.2947C60.5366 34.3625 60.5027 34.3965 60.4348 34.3965L60.4103 34.3833C59.8917 34.2401 59.2694 34.1667 58.5377 34.1667C57.806 34.1667 57.1799 34.3494 56.6273 34.7129C55.9994 35.1292 55.6844 35.6792 55.6844 36.3667C55.6844 37.1729 56.0446 37.834 56.7669 38.3501C57.3854 38.7834 58.1284 39.0376 58.994 39.113C59.2241 37.9263 59.7974 36.702 60.712 35.4381C61.7737 33.9802 62.8298 33.2512 63.8821 33.2512C64.2309 33.2512 64.5195 33.3548 64.7477 33.5639C64.9758 33.773 65.0909 34.0442 65.0909 34.3833V34.5999C65.0909 35.1932 64.8325 35.877 64.3139 36.6474C63.8462 37.3424 63.3371 37.8849 62.7864 38.2748C62.0057 38.8267 61.0628 39.1525 59.9596 39.2543C59.8992 39.5424 59.8709 39.8476 59.8709 40.1697C59.8709 41.2302 60.2783 41.7594 61.0929 41.7594C61.687 41.7594 62.2301 41.4844 62.7223 40.9325C63.0863 40.424 63.4559 39.9116 63.8293 39.3936L63.867 39.3428C63.9424 39.3428 63.982 39.3673 63.982 39.42L63.9688 39.4709C63.8161 40.0736 63.4427 40.6406 62.8486 41.1755C62.2282 41.735 61.6172 42.0156 61.0156 42.0156C60.3443 42.0156 59.8276 41.7481 59.4617 41.2151C59.1392 40.7498 58.9771 40.1772 58.9771 39.4991V39.2957C57.9682 39.1864 57.161 38.919 56.5576 38.4952C55.8278 37.9696 55.4619 37.2407 55.4619 36.3083C55.4619 35.5888 55.8221 35.0067 56.5444 34.566C57.1554 34.193 57.8475 34.0065 58.6206 34.0065C59.3938 34.0065 60.0124 34.0838 60.4537 34.2363L60.4612 34.2307ZM64.1536 33.594C63.2371 33.594 62.3282 34.2891 61.4286 35.6792C60.6479 36.8753 60.1802 38.0017 60.0275 39.0621C61.3607 38.919 62.43 38.4481 63.2352 37.6513C63.6595 37.2275 64.0292 36.7359 64.3422 36.1765C64.7156 35.5228 64.9023 34.9465 64.9023 34.4473C64.9023 34.2363 64.8287 34.0405 64.6798 33.8615C64.5308 33.6826 64.3554 33.594 64.1517 33.594H64.1536Z" fill="white"/>
<path d="M65.1209 41.1736C65.1209 41.4787 65.2529 41.6313 65.515 41.6313C65.7771 41.6313 66.0506 41.4411 66.3297 41.0587C66.5579 40.7535 66.7238 40.4446 66.8256 40.1301C66.4013 39.9945 66.1882 39.7195 66.1882 39.3032C66.1882 38.7268 66.3919 38.4386 66.7992 38.4386C67.0633 38.4386 67.1934 38.642 67.1934 39.0489C67.1934 39.6083 67.0142 40.2017 66.6578 40.8289C66.2599 41.5503 65.7998 41.9101 65.283 41.9101C65.036 41.9101 64.8286 41.7876 64.6588 41.5409C64.5061 41.3299 64.4307 41.0964 64.4307 40.8421C64.4307 40.358 64.6098 39.8419 64.9662 39.29C65.3641 38.6967 65.7941 38.399 66.2524 38.399C66.2618 38.399 66.2769 38.4047 66.3033 38.4179C66.3278 38.4311 66.3448 38.4367 66.3542 38.4367C66.0826 38.7004 65.8092 39.1318 65.5339 39.7345C65.2567 40.3373 65.119 40.8157 65.119 41.1717L65.1209 41.1736Z" fill="white"/>
<path d="M69.7827 41.8744H69.0434L70.2522 38.7457L70.1636 38.6948C70.1127 38.6948 70.0485 38.725 69.9731 38.7834C69.5563 39.1224 69.1886 39.5971 68.8661 40.2074C68.704 40.5219 68.4664 41.0757 68.1533 41.8725H67.4028C67.6309 41.33 67.8572 40.7913 68.0779 40.2582C68.4173 39.452 68.604 38.9435 68.638 38.7325L68.5738 38.6948C68.4305 38.6948 68.1948 38.9152 67.8667 39.356C67.5404 39.7967 67.3631 40.0209 67.3386 40.0303L67.25 39.9418C67.4801 39.6291 67.7083 39.3145 67.9383 39C68.2608 38.627 68.5757 38.4406 68.8812 38.4406C69.1188 38.4406 69.2376 38.5686 69.2376 38.8229C69.2376 39.0358 69.1434 39.3748 68.9567 39.8401C69.5262 38.9077 70.0221 38.4406 70.4465 38.4406C70.5747 38.4406 70.6897 38.4782 70.7972 38.5555C70.9028 38.6308 70.9556 38.7287 70.9556 38.8474C70.9556 39.0433 70.8444 39.3729 70.6237 39.8401C71.2611 38.9077 71.7741 38.4406 72.1644 38.4406C72.2832 38.4406 72.3907 38.4895 72.4888 38.5875C72.585 38.6854 72.634 38.789 72.634 38.8983C72.634 39.1186 72.4605 39.5914 72.1116 40.3166C71.7628 41.0418 71.5893 41.4807 71.5893 41.6333L71.6779 41.7218C71.8306 41.7218 72.0381 41.5052 72.3021 41.0738C72.5642 40.6406 72.7094 40.4202 72.7339 40.4127L72.7981 40.4767C72.7981 40.7065 72.6397 41.0022 72.321 41.3677C72.0022 41.7331 71.7288 41.9139 71.4987 41.9139C71.3724 41.9139 71.2479 41.8725 71.1291 41.7877C71.0103 41.7029 70.95 41.5975 70.95 41.4694C70.95 41.2735 71.1216 40.8026 71.4648 40.051C71.808 39.3014 71.9815 38.8662 71.9815 38.7476L71.9061 38.6967C71.7269 38.6892 71.4101 39.0019 70.9519 39.6385C70.5445 40.198 70.2862 40.618 70.1749 40.8968L69.7808 41.8762L69.7827 41.8744Z" fill="white"/>
<path d="M72.2382 43.9972L73.728 40.4108C73.9072 40.0284 74.1316 39.469 74.4031 38.7325L74.339 38.6948C74.2032 38.7043 73.9656 38.919 73.6262 39.3428C73.2773 39.793 73.0906 40.0209 73.0661 40.0303L72.9888 39.9418C73.3716 39.3993 73.6035 39.0847 73.6884 39C74.0203 38.627 74.3409 38.4406 74.6558 38.4406C74.884 38.4406 74.999 38.5686 74.999 38.8229C74.999 39.0358 74.9048 39.3748 74.7181 39.8401C75.2876 38.9077 75.8137 38.4406 76.2965 38.4406C76.585 38.4406 76.7302 38.708 76.7302 39.2411C76.7302 39.7741 76.5398 40.3468 76.1569 40.9326C75.7232 41.5862 75.248 41.912 74.7313 41.912C74.4012 41.912 74.1372 41.831 73.9411 41.6709L72.9869 43.9991H72.2363L72.2382 43.9972ZM76.1984 38.6817L76.1098 38.6308H76.0589C75.7194 38.7928 75.3291 39.2166 74.8878 39.9022C74.5389 40.4372 74.2598 40.9627 74.0467 41.4788C74.1485 41.6408 74.322 41.7199 74.5691 41.7199C74.867 41.7199 75.2272 41.3055 75.6515 40.473C76.0589 39.6837 76.2456 39.1299 76.2116 38.8079L76.1984 38.6817Z" fill="white"/>
<path d="M79.4594 41.7086C79.6122 41.7086 79.8196 41.4901 80.0836 41.0531C80.3476 40.6161 80.4872 40.3938 80.5041 40.3863L80.5683 40.4504C80.5683 40.6707 80.4042 40.9702 80.0779 41.3469C79.7517 41.7237 79.4764 41.912 79.2576 41.912C79.1464 41.912 79.0426 41.8762 78.9446 41.8047C78.8465 41.7331 78.7975 41.6408 78.7975 41.5315C78.7975 41.2697 78.8918 40.9213 79.0785 40.488C78.8823 40.7687 78.6919 41.0475 78.5052 41.3281C78.1997 41.718 77.9583 41.9139 77.7791 41.9139C77.583 41.9139 77.4208 41.831 77.2888 41.6653C77.1568 41.4995 77.0908 41.3149 77.0908 41.1115C77.0908 40.586 77.3209 40.0171 77.7791 39.4068C78.2638 38.7626 78.7598 38.4406 79.2689 38.4406C79.5914 38.4406 79.7706 38.5347 79.8045 38.7212L79.9195 38.4801H80.5947C80.3646 39.032 80.1364 39.5858 79.9063 40.1452C79.5235 41.0776 79.333 41.5617 79.333 41.5956C79.333 41.6728 79.3745 41.7105 79.4613 41.7105L79.4594 41.7086ZM77.7263 41.5428C77.7263 41.6615 77.7678 41.7199 77.8527 41.7199C78.0828 41.7199 78.4467 41.3055 78.9483 40.473C79.433 39.6687 79.6744 39.1243 79.6744 38.8455C79.6744 38.6666 79.5971 38.5781 79.4462 38.5781C79.1237 38.5781 78.7503 38.9943 78.326 39.825C77.9262 40.5879 77.7282 41.1605 77.7282 41.541L77.7263 41.5428Z" fill="white"/>
<path d="M83.393 41.6181C83.393 41.6859 83.4307 41.7198 83.508 41.7198C83.6514 41.7198 83.8513 41.5032 84.1058 41.0719C84.3604 40.6386 84.5 40.4183 84.5264 40.4107L84.6037 40.4748C84.6037 40.5859 84.4962 40.8006 84.2793 41.1227C84.0625 41.4448 83.8984 41.652 83.789 41.7462C83.6532 41.8555 83.4911 41.912 83.3063 41.912C83.178 41.912 83.0536 41.8649 82.931 41.7726C82.8084 41.6803 82.7462 41.5729 82.7462 41.4542C82.7462 41.2753 82.9102 40.8119 83.2365 40.0623C83.5627 39.3126 83.7268 38.8737 83.7268 38.7456L83.6514 38.6948C83.3628 38.6872 82.9668 39.1525 82.4671 40.0943C82.1521 40.6707 81.8768 41.264 81.6392 41.8743H80.8886C81.279 40.908 81.6788 39.8607 82.0861 38.7324L82.0088 38.6684C81.8655 38.6684 81.6317 38.8944 81.3092 39.3484C80.9867 39.8023 80.8076 40.0321 80.7736 40.0415L80.6963 39.9907C80.7057 39.7797 80.915 39.467 81.3261 39.0564C81.7373 38.6458 82.0748 38.4386 82.3388 38.4386C82.5764 38.4386 82.6953 38.5667 82.6953 38.821C82.6953 39.0338 82.601 39.3729 82.4143 39.8381C82.7198 39.3804 82.9272 39.0884 83.0385 38.9604C83.3364 38.6119 83.6193 38.4386 83.8909 38.4386C84.0097 38.4386 84.1172 38.4763 84.2152 38.5535C84.3114 38.6288 84.3604 38.7268 84.3604 38.8455C84.3604 39.0922 84.2001 39.5725 83.8777 40.2883C83.5552 41.0041 83.393 41.4467 83.393 41.6162V41.6181Z" fill="white"/>
<path d="M85.5694 41.8743C85.4336 41.8743 85.3186 41.8216 85.2262 41.7161C85.1319 41.6106 85.0866 41.4901 85.0866 41.3544C85.0866 41.1171 85.2526 40.6594 85.5826 39.9813C85.9145 39.3032 86.0842 38.8794 86.0918 38.7099L86.0031 38.6213C85.8409 38.6213 85.6354 38.8379 85.3846 39.2693C85.1338 39.7006 84.9886 39.9229 84.9452 39.9304L84.8698 39.8796C84.8792 39.5989 85.0395 39.29 85.3525 38.951C85.6656 38.6119 85.9598 38.4424 86.2313 38.4424C86.5368 38.4424 86.6896 38.561 86.6896 38.7984C86.6896 39.0866 86.5198 39.597 86.1804 40.3316C85.8409 41.0644 85.6712 41.4919 85.6712 41.6106L85.7976 41.6991C86.0012 41.7085 86.3671 41.2376 86.8932 40.2883C87.012 40.0773 87.3175 39.4746 87.8097 38.4819H88.5094L87.0328 42.0815C86.3369 43.7767 85.6203 44.6244 84.8811 44.6244C84.5925 44.6244 84.4492 44.4624 84.4492 44.1403C84.4492 43.7504 84.6868 43.3266 85.1621 42.8688C85.3412 42.6899 85.7391 42.364 86.3595 41.8894C86.4274 41.7104 86.6141 41.2584 86.9196 40.5294C86.6726 40.9702 86.4991 41.2584 86.3973 41.394C86.1333 41.7161 85.8579 41.8781 85.5694 41.8781V41.8743ZM86.2313 42.1663C85.8994 42.3697 85.5694 42.6617 85.2375 43.044C84.8377 43.5017 84.6378 43.8785 84.6378 44.1761C84.6378 44.387 84.7264 44.4944 84.9056 44.4944C85.1187 44.4944 85.377 44.1591 85.6825 43.4904C85.8692 43.0497 86.0522 42.6089 86.2294 42.1681L86.2313 42.1663Z" fill="white"/>
<path d="M38.2061 45.7564C38.2212 45.7413 38.2401 45.73 38.257 45.7262C38.5078 46.0408 38.538 46.3271 38.3475 46.5851C38.1495 46.8451 37.9855 47.0203 37.8516 47.1107C37.6875 47.2256 37.4612 47.3442 37.1727 47.4667C36.8804 47.5872 36.3995 47.6456 35.7319 47.6418C35.4962 47.6418 35.2774 47.623 35.0757 47.5853C34.8645 47.5533 34.7211 47.4422 34.6438 47.2538C34.5854 47.1333 34.5684 46.9864 34.5929 46.8131C34.6174 46.6398 34.6589 46.4928 34.7174 46.3704C34.8588 46.0785 35.1228 45.8355 35.5094 45.6396C35.9016 45.4475 36.2996 45.3815 36.6993 45.4437C36.7314 45.4644 36.6918 45.5605 36.5824 45.7338C36.4731 45.907 36.407 46.037 36.3825 46.1237C36.2449 46.1557 36.111 46.1802 35.9771 46.1952C35.8432 46.2103 35.7112 46.2386 35.5792 46.2781C35.6867 46.2706 35.7772 46.2649 35.8545 46.2593C35.9318 46.2555 35.9903 46.2517 36.0318 46.248C36.0733 46.2442 36.1223 46.2404 36.1807 46.2386C36.2373 46.2367 36.3071 46.2348 36.3844 46.2348V46.3459C36.2694 46.3422 36.1506 46.3459 36.0299 46.3516C35.9073 46.3591 35.781 46.3723 35.6471 46.3874C35.3906 46.4194 35.1888 46.5173 35.0361 46.6831C35.0681 46.7697 35.1322 46.8357 35.2265 46.8846C35.3208 46.9336 35.4321 46.9656 35.5565 46.9845C35.6829 47.0033 35.8187 47.0127 35.962 47.0127C36.1053 47.0127 36.2562 47.0071 36.3976 46.9939C36.5391 46.9826 36.6729 46.9675 36.7993 46.9524C36.9256 46.9374 37.0313 46.9261 37.118 46.9185C37.201 46.9185 37.3028 46.8922 37.4254 46.8394C37.5536 46.7848 37.6536 46.7415 37.7215 46.7095C37.7271 46.6586 37.6988 46.5889 37.6366 46.4985C37.5744 46.4119 37.5423 46.3553 37.5423 46.3271C37.5423 46.3139 37.614 46.231 37.7592 46.0803C37.9082 45.9278 38.0062 45.8355 38.0552 45.8035C38.1533 45.9334 38.2231 46.0577 38.2608 46.1708C38.3004 46.2838 38.2759 46.4213 38.1854 46.587C38.2759 46.4702 38.3136 46.3478 38.3004 46.2197C38.2853 46.0916 38.2419 45.9504 38.1665 45.7921L38.2023 45.7564H38.2061ZM36.1336 45.0067C36.1807 44.9992 36.2166 44.9935 36.243 44.9879C36.2694 44.9822 36.2864 44.9803 36.2939 44.9765C36.2449 44.9615 36.1902 44.9521 36.1279 44.9521C36.0657 44.9521 36.0073 44.9313 35.9563 44.888C35.9563 44.7901 35.9771 44.6771 36.0186 44.5509C36.0601 44.4247 36.1034 44.3192 36.1468 44.2325C36.2336 44.2401 36.3146 44.2495 36.3882 44.2589C36.4617 44.2683 36.5296 44.2759 36.5881 44.2853C36.6993 44.2966 36.8992 44.274 37.1915 44.2156C37.1915 44.2363 37.1878 44.274 37.1821 44.3305C37.1765 44.387 37.1689 44.4604 37.1614 44.5509C37.1406 44.7354 37.1255 44.8334 37.1123 44.8409C37.0822 44.8692 37.0388 44.8899 36.9803 44.905C36.9219 44.92 36.8785 44.9295 36.8464 44.9332C36.8917 44.9483 36.937 44.9577 36.9879 44.9596C37.0369 44.9615 37.0878 44.969 37.1369 44.9803C37.1293 45.001 37.1199 45.0199 37.1123 45.0387C37.1048 45.0575 37.0973 45.0783 37.0878 45.0971C36.9916 45.0801 36.8974 45.0726 36.8068 45.0726C36.7163 45.0726 36.6258 45.0764 36.5353 45.082C36.4448 45.0877 36.3524 45.0952 36.26 45.1065C36.1675 45.1178 36.0714 45.1216 35.9733 45.1216V45.0255C35.9941 45.0255 36.0469 45.018 36.1336 45.0048V45.0067Z" fill="white"/>
<path d="M41.4934 45.1367C41.5085 45.1291 41.5293 45.1216 41.5594 45.1178C41.599 45.2553 41.6349 45.374 41.6631 45.4738C41.6914 45.5737 41.7027 45.6754 41.6952 45.779C41.6877 45.9165 41.6688 46.0427 41.6424 46.1576C41.616 46.2725 41.5783 46.3817 41.5311 46.4853C41.484 46.587 41.4255 46.685 41.3576 46.7773C41.2898 46.8696 41.2124 46.9656 41.1257 47.0636C41.0239 47.1879 40.9145 47.284 40.8032 47.348C40.6901 47.4139 40.575 47.4629 40.4581 47.4968C40.3412 47.5307 40.2205 47.5552 40.0979 47.5703C39.9753 47.5854 39.8509 47.6042 39.7208 47.6268C39.5906 47.6494 39.4586 47.6795 39.3247 47.721C39.1908 47.7624 39.0551 47.8265 38.9193 47.9131C38.8872 47.8811 38.8703 47.8396 38.8703 47.7888C38.9645 47.7379 39.0588 47.6946 39.1512 47.655C39.2436 47.6155 39.3606 47.5797 39.502 47.5477C39.3681 47.5401 39.238 47.5552 39.106 47.5967C38.9645 47.6437 38.874 47.6927 38.8344 47.7473C38.8118 47.721 38.7967 47.7059 38.7892 47.7021C38.7816 47.6984 38.7948 47.6682 38.8288 47.6117C38.8533 47.5609 38.8721 47.5119 38.8853 47.4629C38.9004 47.4139 38.9155 47.3669 38.9344 47.3235C38.9532 47.2802 38.9777 47.2388 39.006 47.1992C39.0343 47.1597 39.0739 47.1239 39.123 47.0918C39.1626 47.0617 39.2625 47.0372 39.419 47.0165C39.4982 47.009 39.5661 47.0014 39.6227 46.992C39.6793 46.9845 39.7302 46.9769 39.7717 46.9732C39.866 46.6473 39.8697 46.3252 39.783 46.0088C39.7358 45.8487 39.7019 45.7017 39.6774 45.5699C39.6529 45.438 39.6378 45.3213 39.6284 45.2177C39.6246 45.1969 39.7 45.1028 39.8565 44.9332C40.0131 44.7637 40.113 44.679 40.1602 44.679C40.1847 44.679 40.1979 44.7411 40.1998 44.8673C40.2016 44.9935 40.2205 45.2158 40.2544 45.536C40.2752 45.4343 40.2733 45.2836 40.2488 45.0858C40.2262 44.8805 40.2318 44.7468 40.2676 44.6846C40.2922 44.6959 40.3261 44.6978 40.3732 44.6903L40.3978 45.4814C40.4015 45.6754 40.3732 45.9202 40.311 46.2179C40.2488 46.5098 40.1545 46.734 40.0263 46.8903C39.9716 46.9525 39.9848 46.9826 40.0621 46.9769C40.1036 46.9732 40.1413 46.9694 40.1734 46.9675C40.2054 46.9656 40.2318 46.9638 40.2544 46.9638C40.3525 46.9638 40.4977 46.9412 40.6863 46.8941C40.8749 46.8432 41.0031 46.7679 41.0691 46.6643C41.1483 46.5569 41.1389 46.3893 41.0446 46.1576C40.9541 45.9165 40.9069 45.7677 40.9032 45.7149C40.8956 45.6904 40.9069 45.6622 40.939 45.6283C40.9711 45.5944 40.9975 45.5605 41.0201 45.5266C41.0446 45.4983 41.071 45.4644 41.1031 45.4249C41.1351 45.3853 41.1653 45.3476 41.1973 45.31C41.2294 45.2723 41.2615 45.2422 41.2916 45.2177C41.3237 45.1932 41.3539 45.1781 41.3859 45.1687C41.4199 45.2045 41.4519 45.293 41.4802 45.4343C41.5142 45.5774 41.5387 45.6735 41.5557 45.7244C41.5707 45.6999 41.5557 45.6113 41.5104 45.4588C41.4651 45.2987 41.4444 45.1932 41.4444 45.1423C41.4614 45.1423 41.4764 45.1386 41.4896 45.131L41.4934 45.1367Z" fill="white"/>
<path d="M43.3942 46.5456C43.481 46.6945 43.5243 46.8301 43.5243 46.9525C43.5243 47.2821 43.4282 47.6005 43.2339 47.9056C43.1679 48.013 43.0963 48.1015 43.0189 48.175C42.9416 48.2465 42.8624 48.3087 42.7776 48.3614C42.6927 48.4123 42.6022 48.4556 42.506 48.4914C42.4098 48.5272 42.3099 48.5592 42.2062 48.5856C42.0892 48.6007 41.9931 48.6176 41.9157 48.6327C41.8384 48.6477 41.7781 48.659 41.7347 48.6666C41.6932 48.6779 41.6498 48.6911 41.6065 48.7024C41.5631 48.7137 41.5197 48.725 41.4745 48.7325C41.4707 48.708 41.4669 48.6873 41.4631 48.6685C41.4594 48.6496 41.4556 48.6346 41.4518 48.6195C41.5461 48.5743 41.6687 48.5498 41.8177 48.5404C41.9685 48.5328 42.0742 48.5121 42.1326 48.4763C42.0817 48.4594 41.9648 48.465 41.78 48.4876C41.6027 48.514 41.4801 48.5385 41.4141 48.563C41.3934 48.5159 41.4141 48.4104 41.4707 48.2428C41.5197 48.0732 41.5669 47.9659 41.6121 47.9207C41.6197 47.9094 41.6857 47.8981 41.812 47.8905H42.0383C42.2533 47.9018 42.4589 47.8736 42.655 47.8039C42.8511 47.7342 43.0001 47.6381 43.1057 47.5195C43.117 47.4987 43.1227 47.4648 43.1208 47.4178C43.1189 47.3707 43.117 47.3311 43.117 47.301C43.0793 47.2803 43.0472 47.2859 43.0208 47.3142C42.9944 47.3443 42.9661 47.3575 42.936 47.3575H42.8568C42.5475 47.3575 42.391 47.2124 42.391 46.9224C42.391 46.7302 42.4721 46.5532 42.6324 46.3912C42.6814 46.4289 42.7078 46.4496 42.7134 46.4552C42.704 46.4722 42.687 46.4967 42.6625 46.5325C42.638 46.5682 42.6097 46.6135 42.5758 46.67C42.5079 46.783 42.4871 46.8527 42.5154 46.8809C42.5626 46.8301 42.6041 46.7754 42.6418 46.7171C42.6795 46.6568 42.7153 46.5927 42.7512 46.523C42.8172 46.3837 42.9209 46.314 43.0585 46.314C43.1962 46.314 43.315 46.3893 43.3942 46.54V46.5456Z" fill="white"/>
<path d="M43.8331 45.892C43.8463 45.698 43.8633 45.5323 43.8822 45.391C43.9293 45.1085 43.8954 44.8259 43.7822 44.5472C43.7822 44.4888 43.8463 44.3776 43.9765 44.2119C44.1066 44.0424 44.1858 43.9651 44.2122 43.9764C44.3065 44.0518 44.3555 44.2025 44.3612 44.4285C44.3725 44.6602 44.38 44.824 44.38 44.9239C44.4045 44.7751 44.414 44.6263 44.4102 44.4793C44.4064 44.3324 44.3951 44.1742 44.3744 44.0103C44.3781 44.0066 44.3913 44.0009 44.414 43.9934C44.4366 43.9858 44.4573 43.9745 44.48 43.9595C44.563 44.08 44.578 44.3456 44.529 44.7562C44.5045 44.9634 44.4837 45.1311 44.4668 45.261C44.4498 45.391 44.4366 45.4833 44.4291 45.5398C44.4083 45.6321 44.3895 45.7414 44.3687 45.8657C44.348 45.99 44.3272 46.135 44.3046 46.3008C44.2612 46.6304 44.3876 46.8414 44.6874 46.9318H44.959V47.544H44.5969C44.3065 47.544 44.1009 47.4385 43.9784 47.2294C43.8539 47.0147 43.7992 46.7886 43.8143 46.5532C43.8143 46.3064 43.8218 46.0861 43.8331 45.892Z" fill="white"/>
<path d="M46.5918 47.0109H46.9237V47.5421H46.5032C46.309 47.5421 46.1185 47.5477 45.9299 47.5609C45.7451 47.5722 45.5754 47.5327 45.4226 47.4366C45.4075 47.4366 45.3604 47.4517 45.2831 47.4799C45.2058 47.5082 45.1303 47.5289 45.0568 47.5421H44.5137V47.0109H44.9757C44.987 47.0109 45.0153 47.0072 45.0549 47.0015C45.0964 46.9958 45.1209 46.9864 45.1322 46.9751C45.1567 46.8263 45.1869 46.7171 45.2209 46.6455C45.2567 46.5758 45.285 46.508 45.3095 46.444C45.3642 46.3159 45.5056 46.1821 45.7376 46.0465C45.9695 45.9109 46.1524 45.9128 46.2882 46.0503C46.3561 46.12 46.3901 46.201 46.3882 46.2895C46.3863 46.378 46.375 46.4684 46.3542 46.5589C46.3825 46.4948 46.4051 46.4214 46.4221 46.3422C46.4391 46.2631 46.4183 46.1784 46.3599 46.0917C46.3712 46.0917 46.4014 46.0729 46.4466 46.0352C46.59 46.1802 46.5956 46.363 46.4636 46.5852C46.3316 46.8075 46.2071 46.9544 46.0883 47.0241C46.1279 47.0486 46.1732 47.058 46.2222 47.0542C46.2712 47.0505 46.3146 47.0486 46.3542 47.0486H46.59V47.0128L46.5918 47.0109ZM46.2467 44.9917C46.2316 45.0765 46.2109 45.1575 46.1826 45.2366C46.0846 45.2705 45.9959 45.2931 45.9167 45.3063C45.945 45.3176 45.9789 45.3251 46.0185 45.3251C46.0582 45.3251 46.0996 45.3289 46.1355 45.3364C46.1185 45.3684 46.1166 45.4061 46.1298 45.4475C46.0393 45.4438 45.9563 45.4419 45.8828 45.4419C45.8149 45.4419 45.7508 45.4456 45.6923 45.4532C45.5773 45.4645 45.4339 45.4965 45.2605 45.5474C45.2605 45.5342 45.2605 45.5172 45.2567 45.4984C45.2548 45.4796 45.2529 45.4626 45.2529 45.4475C45.2812 45.4362 45.3227 45.423 45.3755 45.4099C45.4283 45.3967 45.4717 45.3797 45.5037 45.3609C45.4924 45.3571 45.4754 45.3552 45.4547 45.3552H45.219L45.1699 45.3063C45.1699 45.2686 45.1926 45.1763 45.2359 45.0294C45.2623 44.9597 45.2831 44.9032 45.2963 44.8617C45.3114 44.8203 45.3189 44.7939 45.3227 44.7826C45.3642 44.7732 45.5018 44.7675 45.73 44.7675C45.9808 44.7675 46.1694 44.7468 46.2958 44.7073L46.3071 44.7318C46.2769 44.8222 46.2543 44.9107 46.2411 44.9936L46.2467 44.9917ZM45.8073 46.8395C45.8583 46.8169 45.9073 46.7924 45.9544 46.7679C45.9544 46.7434 45.9469 46.7171 45.9337 46.6851C45.9205 46.653 45.9016 46.6248 45.8771 46.5984C45.8545 46.572 45.8281 46.5494 45.8017 46.5344C45.7753 46.5174 45.747 46.5099 45.7187 46.5099C45.5622 46.5344 45.5056 46.589 45.5528 46.6756C45.5924 46.7585 45.6376 46.8244 45.6885 46.8753C45.7168 46.8753 45.7564 46.864 45.8073 46.8414V46.8395Z" fill="white"/>
<path d="M48.9062 47.0109V47.5364H48.5706C48.4348 47.5571 48.316 47.5458 48.2141 47.5063C48.1444 47.4799 48.0934 47.4441 48.0652 47.397C48.035 47.3499 48.0199 47.2991 48.0161 47.2426C48.0124 47.1861 48.0124 47.1314 48.0161 47.073C48.0199 47.0165 48.018 46.9638 48.0105 46.9167C48.0029 46.8696 47.9841 46.8319 47.9539 46.8018C47.9237 46.7735 47.8728 46.7585 47.7974 46.7585C47.7483 46.7585 47.7125 46.7622 47.6861 46.7698C47.8313 46.8395 47.903 46.9186 47.903 47.0052C47.903 47.0919 47.8653 47.1785 47.7917 47.267C47.7182 47.3556 47.6333 47.429 47.5371 47.4874C47.6276 47.4874 47.7031 47.4573 47.7615 47.4008C47.8162 47.3386 47.8521 47.3066 47.8671 47.3066C47.9294 47.3066 47.9501 47.3292 47.9275 47.3763C47.8709 47.4837 47.7729 47.5496 47.6314 47.5778C47.4787 47.6117 47.3768 47.6287 47.3297 47.6287C47.2637 47.6174 47.1958 47.6061 47.1298 47.5948C46.9959 47.5741 46.8865 47.5552 46.8035 47.5345C46.7658 47.5421 46.7281 47.5421 46.6923 47.5345H46.498V47.009H46.8149C46.8903 46.9845 46.9808 46.9657 47.0864 46.9525C47.226 46.7265 47.3844 46.5456 47.5616 46.4081C47.7389 46.2706 47.9162 46.2009 48.0878 46.2009C48.1123 46.2009 48.1425 46.2047 48.1802 46.2103C48.2179 46.216 48.2537 46.2292 48.2896 46.2461C48.3254 46.265 48.3556 46.2876 48.382 46.3177C48.4084 46.3478 48.4253 46.3855 48.4329 46.4345C48.4555 46.5795 48.448 46.702 48.414 46.7999C48.3857 46.8979 48.4499 46.9694 48.6083 47.0109H48.9043H48.9062Z" fill="white"/>
<path d="M50.1924 47.0109V47.5421H49.7039C49.5153 47.5421 49.3456 47.4215 49.1966 47.1823C49.1759 47.252 49.1476 47.3141 49.108 47.365C49.0684 47.4159 49.025 47.4573 48.9741 47.4893C48.9251 47.5213 48.8742 47.5402 48.8195 47.5477C48.7667 47.5552 48.7176 47.5534 48.6762 47.5421H48.3857V47.0109H48.6271C48.7252 47.0222 48.8176 46.992 48.9025 46.9205C48.9873 46.8489 49.042 46.7623 49.0646 46.6643C49.1061 46.491 49.1099 46.1972 49.0703 45.7809C49.0495 45.5718 49.0363 45.391 49.0288 45.2403C49.0213 45.0896 49.0156 44.9653 49.01 44.8655C49.0175 44.8542 49.0401 44.8278 49.0741 44.792C49.1099 44.7543 49.1608 44.7072 49.2268 44.6507C49.2909 44.5886 49.3437 44.5396 49.3852 44.5019C49.4267 44.4643 49.4588 44.4417 49.4795 44.4341C49.4946 44.4454 49.5116 44.4567 49.5285 44.4643C49.5003 44.5019 49.4946 44.6715 49.5097 44.9709C49.5248 45.2686 49.538 45.44 49.5455 45.4833C49.5531 45.4381 49.5587 45.3665 49.5606 45.2667C49.5606 45.1668 49.5663 45.0406 49.57 44.89C49.5738 44.7393 49.5776 44.5886 49.5814 44.4398C49.5964 44.4398 49.6134 44.436 49.6323 44.4304C49.653 44.4247 49.6681 44.4191 49.6813 44.4153L49.7002 45.2667C49.6926 45.3138 49.6813 45.3816 49.6662 45.472C49.6511 45.5624 49.6398 45.6641 49.6266 45.779C49.6153 45.892 49.6059 46.0107 49.5983 46.1312C49.5908 46.2518 49.5927 46.3667 49.6021 46.4741C49.6115 46.5814 49.6266 46.6756 49.6492 46.7566C49.6719 46.8376 49.7077 46.8922 49.7586 46.9205C49.7699 46.9581 49.8058 46.9902 49.8642 47.0147H50.1905L50.1924 47.0109Z" fill="white"/>
<path d="M50.3767 47.4931C50.2692 47.5534 50.173 47.5703 50.0862 47.5421H49.7393V47.0109H50.0391C50.1409 47.0222 50.2352 46.9921 50.3201 46.9205C50.4049 46.8489 50.4596 46.7623 50.4823 46.6643C50.5181 46.4872 50.5181 46.1934 50.4823 45.7809C50.4615 45.5718 50.4483 45.391 50.4408 45.2403C50.4332 45.0896 50.4257 44.9653 50.4219 44.8655C50.4427 44.841 50.5143 44.7694 50.6369 44.6507C50.7029 44.5886 50.7576 44.5396 50.7991 44.5019C50.8406 44.4643 50.8707 44.4417 50.8915 44.4341C50.9066 44.4454 50.9254 44.4567 50.9424 44.4643C50.9122 44.5019 50.9047 44.6715 50.9217 44.9709C50.9405 45.2686 50.9537 45.44 50.9613 45.4833C50.9688 45.4381 50.9745 45.3665 50.9801 45.2667C50.9858 45.1668 50.9877 45.0406 50.9914 44.89C50.9952 44.7393 50.9971 44.6244 50.9971 44.5509V44.4398C51.0084 44.4398 51.0254 44.436 51.0461 44.4304C51.0669 44.4247 51.0857 44.4191 51.1027 44.4153L51.114 45.2667C51.1027 45.3213 51.0914 45.4023 51.0801 45.5097C51.0688 45.617 51.0574 45.7357 51.0461 45.8657C51.0348 45.9956 51.0197 46.1275 51.0046 46.2631C50.9895 46.3987 50.965 46.523 50.9349 46.6323C50.6746 47.1352 50.4898 47.4215 50.3785 47.4912L50.3767 47.4931Z" fill="white"/>
<path d="M53.1111 47.9546C53.0074 48.0412 52.8943 48.1166 52.7736 48.1806C52.6529 48.2446 52.5246 48.2974 52.3926 48.3369C52.2606 48.3765 52.1305 48.401 52.0042 48.4142C51.9212 48.4142 51.8307 48.4161 51.7288 48.4198C51.6289 48.4236 51.5365 48.4462 51.4535 48.4857C51.4497 48.465 51.4384 48.4518 51.4196 48.4443C51.4007 48.4368 51.395 48.4161 51.4026 48.384C51.5516 48.3181 51.7005 48.2861 51.8495 48.2899C52.0004 48.2936 52.1343 48.2823 52.2512 48.2541C52.1022 48.239 51.9495 48.2333 51.7929 48.2333C51.6364 48.2333 51.4874 48.2559 51.3498 48.303C51.3253 48.2786 51.3422 48.1693 51.3988 47.9734C51.4535 47.7888 51.4912 47.6758 51.5101 47.6362C51.6949 47.5421 51.9268 47.5138 52.2022 47.5552C52.4888 47.6023 52.7359 47.5421 52.9452 47.3782C53.047 47.3236 53.1356 47.252 53.2111 47.1616C53.2865 47.0712 53.3487 46.9751 53.3997 46.8715C53.4506 46.7698 53.4939 46.6662 53.5298 46.5626C53.5656 46.459 53.5977 46.3667 53.6297 46.2857C53.6618 46.2047 53.692 46.1407 53.724 46.0936C53.7561 46.0465 53.7919 46.0258 53.8315 46.0352C53.8937 46.0578 53.9258 46.1105 53.9258 46.1915C53.9258 46.3271 53.856 46.5701 53.7146 46.9242C53.5788 47.2821 53.4694 47.527 53.3827 47.6607C53.3073 47.7719 53.2186 47.8698 53.1149 47.9565L53.1111 47.9546Z" fill="white"/>
<path d="M54.2921 45.892C54.3053 45.698 54.3223 45.5323 54.3412 45.391C54.3883 45.1085 54.3544 44.8259 54.2412 44.5472C54.2412 44.4888 54.3053 44.3776 54.4354 44.2119C54.5656 44.0424 54.6448 43.9651 54.6712 43.9764C54.7655 44.0518 54.8145 44.2025 54.8202 44.4285C54.8315 44.6602 54.839 44.824 54.839 44.9239C54.8635 44.7751 54.873 44.6263 54.8692 44.4793C54.8654 44.3324 54.8541 44.1742 54.8334 44.0103C54.8371 44.0066 54.8503 44.0009 54.873 43.9934C54.8956 43.9858 54.9163 43.9745 54.939 43.9595C55.0219 44.08 55.037 44.3456 54.988 44.7562C54.9635 44.9634 54.9427 45.1311 54.9258 45.261C54.9088 45.391 54.8956 45.4833 54.888 45.5398C54.8673 45.6321 54.8484 45.7414 54.8277 45.8657C54.807 45.99 54.7862 46.135 54.7636 46.3008C54.7202 46.6304 54.8466 46.8414 55.1464 46.9318H55.418V47.544H55.0559C54.7655 47.544 54.5599 47.4385 54.4373 47.2294C54.3129 47.0147 54.2582 46.7886 54.2733 46.5532C54.2733 46.3064 54.2808 46.0861 54.2921 45.892Z" fill="white"/>
<path d="M57.4472 47.0109V47.5364H57.1116C56.9758 47.5571 56.857 47.5458 56.7552 47.5063C56.6854 47.4799 56.6345 47.4441 56.6062 47.397C56.576 47.3499 56.5609 47.2991 56.5571 47.2426C56.5534 47.1861 56.5534 47.1314 56.5571 47.073C56.5609 47.0165 56.559 46.9638 56.5515 46.9167C56.5439 46.8696 56.5251 46.8319 56.4949 46.8018C56.4647 46.7735 56.4138 46.7585 56.3384 46.7585C56.2894 46.7585 56.2535 46.7622 56.2271 46.7698C56.3723 46.8395 56.444 46.9186 56.444 47.0052C56.444 47.0919 56.4063 47.1785 56.3327 47.267C56.2592 47.3556 56.1743 47.429 56.0781 47.4874C56.1687 47.4874 56.2441 47.4573 56.3026 47.4008C56.3572 47.3386 56.3931 47.3066 56.4082 47.3066C56.4704 47.3066 56.4911 47.3292 56.4685 47.3763C56.4119 47.4837 56.3139 47.5496 56.1724 47.5778C56.0197 47.6117 55.9179 47.6287 55.8707 47.6287C55.8047 47.6174 55.7368 47.6061 55.6708 47.5948C55.5369 47.5741 55.4275 47.5552 55.3446 47.5345C55.3069 47.5421 55.2691 47.5421 55.2333 47.5345H55.0391V47.009H55.3559C55.4313 46.9845 55.5218 46.9657 55.6274 46.9525C55.767 46.7265 55.9254 46.5456 56.1027 46.4081C56.2799 46.2706 56.4572 46.2009 56.6288 46.2009C56.6533 46.2009 56.6835 46.2047 56.7212 46.2103C56.7589 46.216 56.7948 46.2292 56.8306 46.2461C56.8664 46.265 56.8966 46.2876 56.923 46.3177C56.9494 46.3478 56.9664 46.3855 56.9739 46.4345C56.9965 46.5795 56.989 46.702 56.955 46.7999C56.9268 46.8979 56.9909 46.9694 57.1493 47.0109H57.4454H57.4472Z" fill="white"/>
<path d="M58.3337 47.5175C58.2753 47.5062 58.1697 47.4629 58.0188 47.3876L57.6963 47.5364H57.4493C57.3305 47.5439 57.2532 47.5439 57.2192 47.5364H56.9043V47.0052H57.355C57.4097 47.0297 57.4568 47.041 57.5002 47.041C57.5323 47.041 57.602 47.0259 57.7077 46.992C57.8057 46.9619 57.8566 46.9185 57.8566 46.862C57.8491 46.7829 57.8076 46.749 57.7322 46.7566C57.653 46.7566 57.5983 46.7716 57.5662 46.798C57.5549 46.7867 57.5474 46.7735 57.5455 46.7584C57.5436 46.7434 57.5398 46.7283 57.536 46.7132C57.5323 46.7132 57.5624 46.6982 57.6303 46.668C57.7133 46.636 57.7944 46.6379 57.8755 46.6737C57.8189 46.6059 57.7473 46.5814 57.6605 46.6021C57.5738 46.6228 57.5228 46.6398 57.5059 46.6567C57.4908 46.6322 57.4776 46.6021 57.4644 46.5644C57.4493 46.5268 57.438 46.4872 57.4286 46.4439C57.4191 46.4006 57.4078 46.3591 57.3984 46.3177C57.3889 46.2762 57.3814 46.2404 57.3776 46.2084C57.4455 46.135 57.5492 46.0672 57.685 46.0088C57.834 45.9504 57.9622 45.9221 58.0678 45.9221C58.147 45.9221 58.2187 45.9353 58.2847 45.9636C58.3507 45.9899 58.4092 46.0276 58.462 46.0728C58.5148 46.118 58.5582 46.1689 58.5921 46.2235C58.626 46.2781 58.6506 46.3365 58.6638 46.3949C58.6713 46.3553 58.6713 46.3158 58.6638 46.2781C58.6543 46.2404 58.643 46.2084 58.6298 46.1783C58.6147 46.15 58.5996 46.1218 58.5846 46.0992C58.5676 46.0747 58.5563 46.0502 58.5487 46.0238C58.577 45.9993 58.6015 45.988 58.6204 45.988C58.6543 45.988 58.6902 46.0351 58.726 46.1293C58.7618 46.2235 58.7807 46.2951 58.7807 46.3403C58.7807 46.5738 58.6751 46.7792 58.4657 46.9562C58.4865 46.9864 58.5299 47.0071 58.5959 47.0203C58.6619 47.0334 58.7109 47.0278 58.7449 47.009H59.1409V47.5401H58.7147C58.5167 47.5401 58.3922 47.5345 58.3375 47.5213L58.3337 47.5175Z" fill="white"/>
<path d="M60.4629 46.6567C60.5214 46.5343 60.5496 46.4533 60.5496 46.4156C60.5704 46.4194 60.6024 46.4213 60.6458 46.4213C60.6458 46.5701 60.5911 46.7094 60.4799 46.8375C60.3686 46.96 60.2592 47.0636 60.1498 47.1446C60.1046 47.1803 60.048 47.2199 59.9782 47.2632C59.9085 47.3066 59.8274 47.348 59.7369 47.3875C59.6463 47.4271 59.5464 47.4591 59.437 47.4874C59.3276 47.5137 59.2107 47.5307 59.0863 47.5345H58.6299V47.0089H59.1862C59.1862 47.0089 59.2145 47.0014 59.2484 46.9882C59.2824 46.975 59.3107 46.96 59.3352 46.9468C59.3691 46.8696 59.4031 46.7867 59.437 46.6981C59.471 46.6077 59.5106 46.5211 59.5577 46.4344C59.5935 46.3516 59.6614 46.2913 59.7614 46.2498C59.8613 46.2103 59.9556 46.1896 60.0461 46.1896C60.114 46.1896 60.2045 46.2122 60.3158 46.2574C60.4271 46.3026 60.4836 46.3742 60.4836 46.474C60.4836 46.523 60.4629 46.5832 60.4214 46.6586C60.3799 46.7339 60.3441 46.798 60.312 46.8526C60.3554 46.83 60.4063 46.766 60.4591 46.6586L60.4629 46.6567Z" fill="white"/>
<path d="M64.8505 47.0109V47.5364H64.3074C64.2414 47.5364 64.1942 47.5326 64.1659 47.5251C64.0547 47.5006 63.9849 47.4385 63.9547 47.3386C63.9227 47.2313 63.9057 47.1503 63.9057 47.0938C63.9057 46.9977 63.9227 46.8602 63.9547 46.6831C63.9849 46.5174 63.9641 46.3855 63.8944 46.2819C63.8076 46.1746 63.6794 46.1086 63.5116 46.0841C63.3418 46.0597 63.1646 46.0597 62.9797 46.0841C62.8892 46.0954 62.8006 46.1124 62.7138 46.1331C62.6271 46.1538 62.5479 46.1764 62.4781 46.2009C62.4083 46.2254 62.348 46.2499 62.299 46.2744C62.2499 46.2989 62.2179 46.3234 62.2009 46.3497C62.2367 46.5927 62.4065 46.6756 62.7082 46.5965C63.0118 46.5098 63.2853 46.4609 63.5304 46.4477C63.604 46.4477 63.6568 46.4627 63.685 46.4891C63.6643 46.5475 63.6058 46.6473 63.5059 46.7905C63.4116 46.9355 63.3569 47.0052 63.3456 47.0015C63.2174 46.9864 63.0986 46.9902 62.993 47.0128C62.8855 47.0372 62.7648 47.0674 62.6271 47.1069C62.7252 47.1277 62.8364 47.1145 62.9609 47.0693C63.0854 47.0241 63.2079 47.0297 63.3286 47.0881C63.3154 47.1277 63.3041 47.1521 63.2947 47.1597C63.1796 47.1239 63.0608 47.1258 62.9383 47.1653C62.8176 47.2068 62.6912 47.2294 62.5611 47.2294C62.4046 47.2294 62.2311 47.1917 62.0406 47.1182C61.8501 47.0448 61.7559 46.9129 61.7559 46.7227C61.7559 46.5814 61.82 46.4213 61.9501 46.2405C62.0802 46.0465 62.1971 45.9165 62.2971 45.8449C62.5102 45.6792 62.7497 45.5756 63.0137 45.5304C63.2777 45.4852 63.5417 45.4852 63.8057 45.5304C64.0773 45.5775 64.2621 45.7168 64.3583 45.9523C64.3696 45.941 64.3752 45.9222 64.3734 45.8995C64.3715 45.8769 64.3658 45.8543 64.3564 45.8355C64.347 45.8148 64.3375 45.7941 64.3281 45.7733C64.3187 45.7526 64.313 45.7357 64.313 45.7244C64.313 45.7131 64.3206 45.698 64.3394 45.6829C64.3583 45.6679 64.3734 45.6528 64.3885 45.6358C64.4205 45.6528 64.4469 45.6905 64.4658 45.7526C64.4846 45.8148 64.4941 45.8581 64.4941 45.8826C64.4941 46.0069 64.4771 46.1256 64.4413 46.2386C64.4054 46.3516 64.3677 46.4665 64.3243 46.5833C64.2998 46.6473 64.3055 46.7321 64.3432 46.8376C64.3809 46.9318 64.4413 46.9902 64.5242 47.009H64.8561L64.8505 47.0109Z" fill="white"/>
<path d="M66.2558 47.0109V47.5421H65.7674C65.5788 47.5421 65.4091 47.4215 65.2601 47.1823C65.2394 47.252 65.2111 47.3141 65.1715 47.365C65.1319 47.4159 65.0885 47.4573 65.0376 47.4893C64.9886 47.5213 64.9376 47.5402 64.883 47.5477C64.8302 47.5552 64.7811 47.5534 64.7396 47.5421H64.4492V47.0109H64.6906C64.7887 47.0222 64.8811 46.992 64.9659 46.9205C65.0508 46.8489 65.1055 46.7623 65.1281 46.6643C65.1696 46.491 65.1734 46.1972 65.1338 45.7809C65.113 45.5718 65.0998 45.391 65.0923 45.2403C65.0847 45.0896 65.0791 44.9653 65.0734 44.8655C65.081 44.8542 65.1036 44.8278 65.1375 44.792C65.1734 44.7543 65.2243 44.7072 65.2903 44.6507C65.3544 44.5886 65.4072 44.5396 65.4487 44.5019C65.4902 44.4643 65.5222 44.4417 65.543 44.4341C65.5581 44.4454 65.575 44.4567 65.592 44.4643C65.5637 44.5019 65.5581 44.6715 65.5732 44.9709C65.5882 45.2686 65.6014 45.44 65.609 45.4833C65.6165 45.4381 65.6222 45.3665 65.6241 45.2667C65.6241 45.1668 65.6297 45.0406 65.6335 44.89C65.6373 44.7393 65.6411 44.5886 65.6448 44.4398C65.6599 44.4398 65.6769 44.436 65.6957 44.4304C65.7165 44.4247 65.7316 44.4191 65.7448 44.4153L65.7636 45.2667C65.7561 45.3138 65.7448 45.3816 65.7297 45.472C65.7146 45.5624 65.7033 45.6641 65.6901 45.779C65.6788 45.892 65.6693 46.0107 65.6618 46.1312C65.6543 46.2518 65.6561 46.3667 65.6656 46.4741C65.675 46.5814 65.6901 46.6756 65.7127 46.7566C65.7353 46.8376 65.7712 46.8922 65.8221 46.9205C65.8334 46.9581 65.8692 46.9902 65.9277 47.0147H66.2539L66.2558 47.0109Z" fill="white"/>
<path d="M69.0773 46.8507C68.7623 47.1973 68.3626 47.4158 67.8741 47.5062C67.7949 47.51 67.7176 47.5156 67.6384 47.5251C67.4838 47.5364 67.3084 47.5439 67.1123 47.5439H66.2655C66.2542 47.5326 66.2542 47.5175 66.2693 47.5024C66.2825 47.4874 66.29 47.4648 66.29 47.4384C66.2391 47.4535 66.1901 47.4742 66.1411 47.4968C66.092 47.5194 66.043 47.5326 65.994 47.5382V47.5439H65.8525V46.9374H65.9487C66.0034 46.9374 66.0694 46.9336 66.1448 46.928C66.2222 46.9223 66.2882 46.9072 66.3447 46.8827C66.4371 46.8545 66.5145 46.7867 66.5748 46.6774C66.637 46.5757 66.6936 46.4891 66.7445 46.4175C66.7521 46.4062 66.7672 46.4062 66.786 46.4175C66.8068 46.4288 66.8162 46.4439 66.8162 46.4627C66.8162 46.4834 66.8086 46.5098 66.7954 46.5418C66.7804 46.5757 66.7653 46.6096 66.7483 46.6473C66.7313 46.685 66.7144 46.7226 66.6993 46.7641C66.6823 46.8036 66.6729 46.8394 66.6691 46.8696C66.7276 46.8281 66.7709 46.766 66.8011 46.6831C66.8313 46.6002 66.8614 46.523 66.8916 46.4514C66.9237 46.4514 66.9557 46.4589 66.9878 46.4759C66.952 46.6416 66.8765 46.7999 66.7615 46.9562C66.8011 46.9826 66.8614 46.9826 66.9407 46.9562V46.9374H67.0953C67.1292 46.9562 67.2028 46.9637 67.3122 46.9637C67.3197 46.9637 67.3593 46.8922 67.4291 46.7471C67.4951 46.5983 67.5818 46.4382 67.6893 46.2649C67.7421 46.1783 67.8025 46.0935 67.8704 46.0125C67.9382 45.9296 68.0118 45.8562 68.091 45.794C68.1702 45.73 68.2513 45.6791 68.338 45.6396C68.4248 45.6 68.5172 45.5812 68.6153 45.5812C68.6982 45.5812 68.7737 45.5981 68.8415 45.6301C68.9094 45.6622 68.9679 45.7074 69.0188 45.7639C69.0678 45.8185 69.1074 45.8807 69.1357 45.9504C69.164 46.0201 69.1772 46.0916 69.1772 46.1651C69.1772 46.3685 69.0905 46.5964 68.917 46.847C69.0905 46.6661 69.1885 46.4985 69.2093 46.3459C69.2244 46.1933 69.2187 46.0314 69.1904 45.8637C69.2395 45.843 69.264 45.8373 69.2696 45.8449C69.4507 46.1745 69.3847 46.5098 69.0735 46.8526L69.0773 46.8507ZM68.3098 46.3195C68.091 46.3271 67.9232 46.506 67.8081 46.8564C67.9062 46.8714 68.0439 46.847 68.2211 46.781C68.4022 46.7113 68.5606 46.6059 68.6982 46.4665C68.6605 46.361 68.5304 46.312 68.3079 46.3177L68.3098 46.3195Z" fill="white"/>
<path d="M71.0944 46.5456C71.1812 46.6945 71.2245 46.8301 71.2245 46.9525C71.2245 47.2821 71.1284 47.6005 70.9341 47.9056C70.8681 48.013 70.7965 48.1015 70.7191 48.175C70.6418 48.2465 70.5626 48.3087 70.4778 48.3614C70.3929 48.4123 70.3024 48.4556 70.2062 48.4914C70.11 48.5272 70.0101 48.5592 69.9064 48.5856C69.7894 48.6007 69.6933 48.6176 69.6159 48.6327C69.5386 48.6477 69.4783 48.659 69.4349 48.6666C69.3934 48.6779 69.35 48.6911 69.3067 48.7024C69.2633 48.7137 69.2199 48.725 69.1747 48.7325C69.1709 48.708 69.1671 48.6873 69.1633 48.6685C69.1596 48.6496 69.1558 48.6346 69.152 48.6195C69.2463 48.5743 69.3689 48.5498 69.5179 48.5404C69.6687 48.5328 69.7743 48.5121 69.8328 48.4763C69.7819 48.4594 69.665 48.465 69.4802 48.4876C69.3029 48.514 69.1803 48.5385 69.1143 48.563C69.0936 48.5159 69.1143 48.4104 69.1709 48.2428C69.2199 48.0732 69.2671 47.9659 69.3123 47.9207C69.3199 47.9094 69.3859 47.8981 69.5122 47.8905H69.7385C69.9535 47.9018 70.1591 47.8736 70.3552 47.8039C70.5513 47.7342 70.7003 47.6381 70.8059 47.5195C70.8172 47.4987 70.8229 47.4648 70.821 47.4178C70.8191 47.3707 70.8172 47.3311 70.8172 47.301C70.7795 47.2803 70.7474 47.2859 70.721 47.3142C70.6946 47.3443 70.6663 47.3575 70.6362 47.3575H70.557C70.2477 47.3575 70.0912 47.2124 70.0912 46.9224C70.0912 46.7302 70.1723 46.5532 70.3325 46.3912C70.3816 46.4289 70.408 46.4496 70.4136 46.4552C70.4042 46.4722 70.3872 46.4967 70.3627 46.5325C70.3382 46.5682 70.3099 46.6135 70.276 46.67C70.2081 46.783 70.1873 46.8527 70.2156 46.8809C70.2628 46.8301 70.3043 46.7754 70.342 46.7171C70.3797 46.6568 70.4155 46.5927 70.4514 46.523C70.5174 46.3837 70.6211 46.314 70.7587 46.314C70.8964 46.314 71.0152 46.3893 71.0944 46.54V46.5456Z" fill="white"/>
<path d="M74.5721 47.0053V47.5421H74.2515V47.5364H74.0705C74.0063 47.5364 73.9592 47.5327 73.929 47.5251C73.8272 47.5101 73.7593 47.4498 73.7272 47.3481C73.6933 47.2351 73.6763 47.1503 73.6763 47.0938C73.6763 47.0373 73.6801 46.9714 73.6876 46.9036C73.6952 46.8357 73.7084 46.7604 73.7272 46.6775C73.7555 46.5118 73.731 46.378 73.6518 46.2763C73.5971 46.2066 73.5217 46.1539 73.4217 46.1219C73.3237 46.0898 73.2162 46.071 73.0993 46.0672C72.9842 46.0635 72.8635 46.0691 72.741 46.0861C72.6184 46.1011 72.5034 46.1256 72.3959 46.1539C72.2884 46.1821 72.196 46.2142 72.1205 46.2481C72.0432 46.282 71.9942 46.314 71.9697 46.3441C72.0055 46.5871 72.1752 46.67 72.4769 46.5909C72.6297 46.5494 72.7749 46.5174 72.9107 46.4948C73.0465 46.4722 73.1766 46.459 73.2992 46.4553C73.3689 46.4553 73.4217 46.4666 73.4557 46.491C73.4425 46.5193 73.4199 46.5589 73.3897 46.6078C73.3595 46.6568 73.3218 46.7171 73.2746 46.7868C73.1804 46.9318 73.1257 47.0015 73.1144 46.9977C72.9861 46.9864 72.8673 46.9921 72.7617 47.0166C72.6542 47.0411 72.5335 47.0693 72.3959 47.1032C72.5052 47.1239 72.6165 47.1126 72.7315 47.0693C72.8541 47.0298 72.9748 47.0354 73.0917 47.09C73.088 47.1107 73.0842 47.1258 73.0804 47.139C73.0766 47.1503 73.071 47.1616 73.0653 47.1691C72.9427 47.1334 72.8221 47.1352 72.7032 47.1748C72.5901 47.2162 72.4619 47.2388 72.3204 47.2388C72.1677 47.2388 71.998 47.1993 71.8131 47.122C71.6246 47.0429 71.5303 46.9092 71.5303 46.7208C71.5303 46.5833 71.5944 46.4251 71.7207 46.2443C71.8527 46.0503 71.9697 45.9203 72.0677 45.8487C72.2808 45.683 72.5184 45.5794 72.7806 45.5342C73.0427 45.489 73.3029 45.4871 73.5632 45.5266C73.8272 45.5775 74.0139 45.7169 74.1214 45.9486C74.1327 45.9373 74.1384 45.9203 74.1365 45.8996C74.1346 45.8789 74.1289 45.8563 74.1214 45.8355C74.1138 45.8129 74.1044 45.7922 74.0931 45.7715C74.0818 45.7508 74.0761 45.7338 74.0761 45.7225C74.0761 45.715 74.1025 45.6886 74.1572 45.6472C74.1855 45.6585 74.21 45.6962 74.2308 45.7583C74.2515 45.8205 74.2628 45.8657 74.2628 45.8939C74.2628 46.0145 74.244 46.1294 74.2062 46.2405C74.1685 46.3517 74.1289 46.4666 74.0874 46.5871C74.0629 46.6511 74.0705 46.734 74.1082 46.8339C74.144 46.928 74.2044 46.9864 74.2854 47.0053H74.5759H74.5721ZM73.6009 44.7864C73.5538 44.9371 73.5198 45.0218 73.4953 45.0407C73.4708 45.0614 73.4425 45.0746 73.4085 45.0802C73.3746 45.0859 73.3425 45.0953 73.3067 45.1066C73.3331 45.1179 73.3595 45.1273 73.3878 45.133C73.4161 45.1386 73.45 45.148 73.4877 45.1575C73.4708 45.1857 73.4595 45.214 73.4538 45.2441C73.4463 45.2742 73.4331 45.2837 73.4123 45.2724C73.3048 45.2328 73.1841 45.2045 73.0483 45.1876C72.9126 45.1706 72.7655 45.1876 72.609 45.2366C72.5882 45.1669 72.5826 45.1254 72.5901 45.1122C72.6259 45.1122 72.6618 45.1085 72.6976 45.1009C72.7334 45.0934 72.7693 45.084 72.807 45.0765C72.7693 45.0557 72.7164 45.0426 72.6504 45.035C72.5939 45.0256 72.5656 44.9842 72.5656 44.9107C72.5656 44.8598 72.592 44.76 72.6448 44.6112C72.7032 44.4511 72.7542 44.3795 72.7994 44.3965C72.8409 44.4078 72.8881 44.421 72.9409 44.436C72.9918 44.4511 73.0465 44.4662 73.1049 44.4812C73.2237 44.5114 73.3878 44.4944 73.5934 44.4323C73.6367 44.4247 73.6594 44.4492 73.6594 44.5038C73.6594 44.5415 73.6386 44.6357 73.599 44.7845L73.6009 44.7864Z" fill="white"/>
<path d="M76.56 43.5695C76.5373 43.6637 76.5147 43.7485 76.4958 43.8238C76.4166 43.8935 76.328 43.9613 76.2262 44.0254C76.1243 44.0894 76.03 44.1421 75.9395 44.1817C75.9546 44.1968 76.0432 44.1704 76.2054 44.0969C76.3619 44.0272 76.4619 43.9726 76.5015 43.9331V43.9444C76.5392 43.982 76.5562 44.0084 76.5505 44.0197C76.4694 44.1271 76.3091 44.2099 76.0696 44.274C75.8415 44.3362 75.6793 44.3644 75.5812 44.355L75.6227 45.1574C75.634 46.167 75.5586 46.8169 75.3945 47.105C75.2305 47.3932 75.0419 47.5383 74.8307 47.5383H74.2178V47.0071H74.6836C74.7043 47.0071 74.7326 47.0033 74.7703 46.9977C74.808 46.992 74.8552 46.9845 74.9136 46.977C75.0287 46.9544 75.1003 46.9242 75.1286 46.8828C75.1663 45.7733 75.1531 45.0632 75.0871 44.7562C75.0758 44.6978 75.1117 44.6338 75.1984 44.5641C75.2418 44.5283 75.2776 44.4963 75.3059 44.4699C75.3323 44.4435 75.3549 44.419 75.37 44.3983C75.2682 44.4096 75.1663 44.4284 75.0645 44.4548C74.9646 44.4793 74.8665 44.4925 74.7722 44.4925C74.693 44.4925 74.6553 44.4642 74.6553 44.4058C74.6553 44.3851 74.6591 44.355 74.6647 44.3117C74.6704 44.2683 74.6779 44.2137 74.6855 44.1478C74.7005 44.0235 74.7232 43.9368 74.7515 43.8879C75.1569 43.8502 75.4832 43.7899 75.7302 43.7108C75.9772 43.6185 76.2677 43.481 76.5977 43.3002C76.5977 43.3868 76.5864 43.4772 76.5637 43.5695H76.56Z" fill="white"/>
<path d="M75.7031 48.7909L75.8747 48.1297C76.1105 48.0431 76.299 47.9998 76.4424 47.9998C76.5178 47.9998 76.5932 48.0035 76.6687 48.0092C76.746 48.0148 76.8233 48.0224 76.9006 48.0299C77.2702 48.0129 77.4814 47.8905 77.5324 47.6588C77.5908 47.4271 77.7059 47.2162 77.8794 47.0222C77.9944 46.9148 78.1283 46.8621 78.281 46.8621H78.3715V46.9223H78.5658V47.5345H78.0283C77.9699 47.5552 77.9208 47.5854 77.8794 47.6287C77.8379 47.672 77.802 47.721 77.77 47.7737C77.7379 47.8265 77.7115 47.883 77.6908 47.9414C77.67 47.9998 77.6493 48.0525 77.6342 48.1015C77.5795 48.254 77.4664 48.4047 77.2929 48.5535C77.1081 48.7136 76.9402 48.8097 76.7912 48.838C76.6969 48.8662 76.5536 48.8737 76.3594 48.8624C76.1746 48.8511 76.0124 48.8945 75.8766 48.9924C75.8559 49.0037 75.8446 49 75.8408 48.9811C75.837 48.9604 75.8238 48.9397 75.8012 48.9152C75.9464 48.7815 76.1369 48.7249 76.3726 48.74C76.6121 48.7588 76.7516 48.7494 76.7931 48.7155C76.7498 48.6986 76.6875 48.6892 76.6083 48.6816C76.5291 48.676 76.4329 48.6703 76.316 48.6666C76.0859 48.6666 75.9049 48.7231 75.7729 48.838C75.7616 48.8587 75.739 48.8417 75.7069 48.789L75.7031 48.7909Z" fill="white"/>
<path d="M78.7265 47.5364C78.7152 47.5213 78.7152 47.5043 78.7302 47.4874C78.7434 47.4704 78.751 47.4516 78.751 47.4309C78.702 47.4478 78.6529 47.4667 78.6039 47.4893C78.5549 47.5119 78.5039 47.5251 78.4549 47.5307V47.5364H78.3135V46.9242H78.4191C78.4681 46.9242 78.5303 46.9242 78.6058 46.9185C78.6831 46.9148 78.751 46.8978 78.8151 46.8696C78.9019 46.8394 78.9754 46.7716 79.0395 46.6643C79.1036 46.5625 79.1583 46.4759 79.2055 46.4043C79.213 46.3968 79.2262 46.3968 79.247 46.4081C79.2677 46.4194 79.2752 46.4326 79.2752 46.4495C79.2752 46.4891 79.2545 46.5531 79.2111 46.6398C79.1659 46.7264 79.1414 46.7999 79.1357 46.862C79.1904 46.8149 79.2338 46.7509 79.2677 46.6699C79.3016 46.587 79.3299 46.5117 79.3544 46.4439C79.3884 46.4439 79.4242 46.4514 79.46 46.4684C79.4393 46.5512 79.411 46.6303 79.3714 46.7076C79.3318 46.7848 79.2828 46.862 79.2243 46.9411C79.2715 46.9675 79.328 46.9713 79.3959 46.9524V46.9223H79.5355C79.5883 46.9072 79.6505 46.8978 79.7259 46.8959C79.7995 46.8941 79.8542 46.8846 79.8862 46.8696C79.9805 46.8319 80.0579 46.7452 80.1163 46.6096C80.171 46.4721 80.2238 46.4043 80.2766 46.4043C80.3294 46.4043 80.352 46.4194 80.352 46.4495C80.352 46.4665 80.3275 46.5192 80.2785 46.6096C80.2295 46.7 80.2068 46.7584 80.2106 46.7867C80.2596 46.7434 80.2955 46.6925 80.32 46.636C80.3445 46.5795 80.3766 46.5098 80.4124 46.4288C80.4162 46.4119 80.452 46.4232 80.518 46.4627C80.518 46.5023 80.5123 46.5381 80.5029 46.5701C80.4935 46.6021 80.4784 46.6322 80.4614 46.6605C80.4426 46.6906 80.4199 46.7208 80.3935 46.7528C80.3671 46.7848 80.3388 46.8244 80.3106 46.8696C80.5859 46.8658 80.7405 46.7848 80.7726 46.6285C80.8009 46.4759 80.8669 46.3836 80.9725 46.3516C80.9932 46.3516 81.0196 46.361 81.0517 46.3817C81.0517 46.4288 81.0102 46.5437 80.9272 46.7283C80.848 46.9054 80.816 46.9939 80.831 46.9939C80.8593 46.9675 80.914 46.8752 80.997 46.717C81.08 46.5512 81.1215 46.4476 81.1215 46.4062C81.1328 46.4137 81.1497 46.4213 81.1705 46.425C81.1912 46.4288 81.2101 46.4363 81.2271 46.4458C81.0781 46.8865 80.8631 47.1973 80.584 47.3781C80.4237 47.4761 80.2559 47.5269 80.0824 47.5326C79.9089 47.5364 79.7316 47.5382 79.5506 47.5382H78.7321L78.7265 47.5364ZM80.5293 45.6245C80.5048 45.5887 80.4614 45.5284 80.403 45.4418C80.2917 45.2685 80.171 45.2478 80.0371 45.3778C80.1465 45.3702 80.2332 45.3834 80.2973 45.4211C80.3634 45.4587 80.4256 45.568 80.484 45.7488C80.4633 45.7564 80.4407 45.7808 80.4143 45.8185C80.3784 45.7846 80.3445 45.7206 80.3124 45.6264C80.2823 45.536 80.2257 45.4908 80.1427 45.4908C79.9617 45.4908 79.8485 45.5868 79.8052 45.7808C79.7637 45.9711 79.6996 46.0672 79.6185 46.0672C79.5374 46.0672 79.5185 46.0163 79.5525 45.9165C79.5675 45.8637 79.5807 45.8223 79.5921 45.7921C79.6015 45.7601 79.609 45.7394 79.6128 45.7281C79.6467 45.6546 79.6901 45.5623 79.7448 45.4569C79.7976 45.3495 79.8617 45.2252 79.9372 45.0801C80.0843 44.792 80.2653 44.6563 80.4803 44.6733C80.5878 44.6846 80.6821 44.7298 80.765 44.807C80.848 44.8843 80.8933 44.9765 80.9008 45.0877C80.9008 45.1498 80.8537 45.2534 80.7594 45.3947C80.6651 45.5322 80.5972 45.6189 80.5538 45.6546C80.5633 45.6735 80.5557 45.6641 80.5312 45.6283L80.5293 45.6245Z" fill="white"/>
</g>
<defs>
<clipPath id="clip0_152_1601">
<rect width="98" height="49" fill="white"/>
</clipPath>
</defs>
</svg>
